<svg xmlns="http://www.w3.org/2000/svg" xmlns:xlink="http://www.w3.org/1999/xlink" viewBox="0 0 583.1741 530.0615">
  <defs>
    <linearGradient id="a" x1="551.3952" y1="58.2697" x2="555.2681" y2="82.1538" gradientTransform="translate(0 40)" gradientUnits="userSpaceOnUse">
      <stop offset="0" stop-color="#f4af8a"/>
      <stop offset="1" stop-color="#f9c0a1" stop-opacity="0"/>
    </linearGradient>
    <linearGradient id="b" x1="382.4356" y1="341.5404" x2="392.1286" y2="346.4914" gradientTransform="translate(0 40)" gradientUnits="userSpaceOnUse">
      <stop offset="0" stop-color="#f3ad8f"/>
      <stop offset="1" stop-color="#fcc4ac" stop-opacity="0"/>
    </linearGradient>
    <linearGradient id="c" x1="427.2678" y1="452.6602" x2="403.0238" y2="440.2602" gradientTransform="translate(0 40)" gradientUnits="userSpaceOnUse">
      <stop offset="0" stop-color="#026cf0"/>
      <stop offset="1" stop-color="#307fe2" stop-opacity="0"/>
    </linearGradient>
    <linearGradient id="d" x1="359.9367" y1="317.5332" x2="379.0317" y2="319.6692" gradientTransform="translate(0 40)" gradientUnits="userSpaceOnUse">
      <stop offset="0" stop-color="#fea568"/>
      <stop offset="1" stop-color="#f4b88e"/>
    </linearGradient>
    <linearGradient id="e" x1="314.0473" y1="438.2186" x2="315.3013" y2="427.8316" gradientTransform="translate(0 40)" gradientUnits="userSpaceOnUse">
      <stop offset="0" stop-color="#0154f7"/>
      <stop offset="1" stop-color="#307fe2" stop-opacity="0"/>
    </linearGradient>
    <linearGradient id="f" x1="454.5925" y1="439.1324" x2="445.9455" y2="435.4824" gradientTransform="translate(0 40)" gradientUnits="userSpaceOnUse">
      <stop offset="0" stop-color="#0071ff"/>
      <stop offset="1" stop-color="#307fe2" stop-opacity="0"/>
    </linearGradient>
    <linearGradient id="g" x1="434.401" y1="486.9546" x2="425.7541" y2="483.3036" xlink:href="#f"/>
  </defs>
  <path d="M144.4,172.9,357.9,508.5,572.2,172.9Z" transform="translate(-58 -20.4)" fill="none" stroke="#2b2b39" stroke-linecap="round" stroke-linejoin="round" stroke-dasharray="3 3" opacity="0.7" style="isolation: isolate"/>
  <circle cx="483.6" cy="159.2" r="96.4" fill="#fff"/>
  <circle cx="483.6" cy="159.2" r="95.4" fill="none" stroke="#ffaf2e" stroke-opacity="0.6" stroke-width="2"/>
  <g>
    <path d="M537.1,127.5c-25.9,20.7-23.3,64.7-24.9,88.6-1.1,16.8-4.5,40.8-6.7,54.5l48.6,7.2V193.6c0-28.1,2-62.6,9.6-70a58.4056,58.4056,0,0,0-13.3,0,24.8766,24.8766,0,0,0-9.3,1.8C539.6,126.3,538.5,126.7,537.1,127.5Z" transform="translate(-58 -20.4)" fill="#fff"/>
    <path d="M537.1,127.5c-25.9,20.7-23.3,64.7-24.9,88.6-1.1,16.8-4.5,40.8-6.7,54.5,18.5,6.8,26.6,8.4,48.6,7.2V193.6c0-21.7,1.2-47.3,5.2-61.2-4.4,7-10.5,40.9-9.5,61.2.9,20.3.3,59.7-5.6,70.7s-36.2,2.7-33.4-5.8,2.8-36.3,5.3-68.4C518.1,164.5,530.9,137.7,537.1,127.5Z" transform="translate(-58 -20.4)" fill="#ffb83b" opacity="0.5" style="isolation: isolate"/>
    <path d="M544.3,264.3c-5.9,11-36.2,2.7-33.4-5.8,7.1,11,24.1,7.6,26.9,3.4,2.8-4.3,7.1-15,7.1-33,0-14.4,3.7-42,5.6-54a135.3448,135.3448,0,0,0-.6,18.7C550.7,213.8,550.1,253.3,544.3,264.3Z" transform="translate(-58 -20.4)" fill="#fff9ef"/>
    <path d="M516.1,190.1c1.5-20,9.7-40.8,16.1-53.7-3.6,7.8-10.8,28.1-10.6,46.4s-5.3,41.2-8.1,50.4C514.3,221.1,514.9,206.2,516.1,190.1Z" transform="translate(-58 -20.4)" fill="#fff9ef"/>
    <path d="M500.7,304l-10.8-1.5c1.7-11.3,13.1-66.5,17.8-102.8,1-7.9,2.1-16.2,3.2-24.8,4.2-33.2,18.8-42.9,30.2-49.5-25.9,20.7-27.4,66.8-28.9,90.8-1.1,16.8-4.5,40.8-6.7,54.5C505.2,272.6,500.9,302.5,500.7,304Z" transform="translate(-58 -20.4)" fill="#ffaf2e"/>
    <path d="M507.7,199.6c1-7.9,2.1-16.2,3.2-24.8-.3,10.4-1.1,27.4-3.2,44.9-4,32.8-8.3,62.6-17.8,82.7C491.5,291.2,503,236,507.7,199.6Z" transform="translate(-58 -20.4)" fill="#f3a00d"/>
    <path d="M604.5,303.1c-5.3-22.9-13-113-13-113s6.2-31.8-4-47.3c-6.5-9.9-23.8-19.2-23.8-19.2-7.7,7.4-9.6,41.9-9.6,70V307C567.4,309.8,589.7,311,604.5,303.1Z" transform="translate(-58 -20.4)" fill="#ffaf2e"/>
    <path d="M558,137.9c-3,14.5-3.9,36.6-3.9,55.7v71.9a449.7837,449.7837,0,0,0,2.5-64.7A537.3183,537.3183,0,0,1,558,137.9Z" transform="translate(-58 -20.4)" fill="#f9a319"/>
    <path d="M604.5,303.1c-5.3-22.9-13-113-13-113s6.2-31.8-4-47.3c0,16.5-8,38.8-3.4,61.1,6.2,30,11.4,57.4,5.6,78.2-4.7,16.6-25.7,23.6-35.6,25C567.4,309.8,589.7,311,604.5,303.1Z" transform="translate(-58 -20.4)" fill="#f9a319"/>
    <path d="M638.8,213.3c1.9-18.9-16.7-46.7-37.7-67.5-9.3-9.2-28.4-20.1-37.4-22.3l27.8,66.6a244.0064,244.0064,0,0,1,19.6,26C614.6,208.7,628.9,203.8,638.8,213.3Z" transform="translate(-58 -20.4)" fill="#ffaf2e"/>
    <path d="M638.8,213.3c1.9-18.9-16.7-46.7-37.7-67.5-4.9-4.8-12.4-10.1-19.8-14.3,2.4,4.1,7.5,13.4,9,18,1.9,5.8,41.7,29,38.3,58.8A18.1812,18.1812,0,0,1,638.8,213.3Z" transform="translate(-58 -20.4)" fill="#f9a319"/>
    <path d="M607.8,208.3c.6-5.8,6.1-9.1,10-10.1,8.8-2.2,17.5.5,21.9,7,3.8,5.7-.5,13.9-4.4,17.1.7-10.8-3.4-14.6-12.4-13.2s-11.7,7-12.1,11.8C608.6,219.1,607.1,215.5,607.8,208.3Z" transform="translate(-58 -20.4)" fill="#f9a319"/>
    <path d="M622.9,209c-9,1.4-11.7,7-12.2,11.8.8,10,2.3,33.5,1.7,47.6-.7,17.5-1.7,23.5-4.9,31.2s1,15.7,7.1,14.2c6.1-1.4,11-8.5,9.6-14.2a20.91,20.91,0,0,1,2.4-15.6c2.4-4.1,8.6-39.1,8.6-61.7C636,211.4,631.9,207.5,622.9,209Z" transform="translate(-58 -20.4)" fill="#ffd0b7"/>
    <path d="M510.9,174.9c4.2-33.2,18.8-42.9,30.2-49.5-9.6,5.1-31.2,11-47,38.7-13.4,23.6-23.6,29.8-27.8,30.9,5.1,4.7,13.8,18.8,13,27.8,5.4-4,21-17.3,28.4-23.1C508.8,191.7,509.8,183.4,510.9,174.9Z" transform="translate(-58 -20.4)" fill="#ffaf2e"/>
    <path d="M507.7,199.6c1-7.9,2.1-16.2,3.2-24.8-3,15-14.2,23.8-20.4,25.9-4.9,1.7-9.9,11.1-11.8,15.6a21.2416,21.2416,0,0,1,.7,6.4C484.8,218.8,500.4,205.5,507.7,199.6Z" transform="translate(-58 -20.4)" fill="#f9a319"/>
    <path d="M474.6,209.7c-3.5-10.7-8.5-14-10.7-14.4a11.6067,11.6067,0,0,1,5-3c3-.8,11.4,0,15.1,6.1,3.2,5.2,6.8,13.6,0,21.9-5.4,6.6-17,6-22.2,4.8C467.6,224.5,477.7,219.3,474.6,209.7Z" transform="translate(-58 -20.4)" fill="#f9a319"/>
    <path d="M461.9,225.2c5.7-.7,15.8-5.9,12.7-15.5-2.5-7.7-5.8-13.1-10.7-14.4-1.2.4-3.5,1.4-12.6-2.5-11.4-4.8-48.4-21.6-51.1-24s-8.7-10.7-17-10.4c-8.4.3-5.4,15.5,4.6,18.2s18.4,9.9,23.3,15.2C415.9,197.1,442.2,223,461.9,225.2Z" transform="translate(-58 -20.4)" fill="#ffd0b7"/>
    <path d="M540.9,125.4V108.8l22.8-10.9v25.6C553.5,142.3,540,137.5,540.9,125.4Z" transform="translate(-58 -20.4)" fill="#ffd0b7"/>
    <path d="M543.4,107.6l20.3-9.7v25.6a.0979.0979,0,0,1-.1.1,41.8475,41.8475,0,0,1-3.1,4.9c-3.8-5.6-13.8-14.3-19.6-18.7V109Z" transform="translate(-58 -20.4)" fill="url(#a)"/>
    <path d="M529.6,67c0,9.7,4.9,10.9,8.6,10.4l22.2,23.9a10.7712,10.7712,0,0,1,2.7,7.6c0,5.1,4-5.4,7-7.6,6.2-4.5,10.4-4.6,12.4-12.1,1.7-6.4-.7-10.9-2.6-11.8-1.2-.5-2.4-1.6-4.3-1.9s-2.3-3.5-2.3-5c-.1-1.2-.6-2.8-3.6-4.6-1.9-1.2-6.6-1.7-8.5,0-1.2.6-3.8,1.3-5.1-1.2-1.2-2.5-3.9-1.5-5.1-.8-3.4,1.2-11.4-2.4-14.5-11.9C532.8,57,529.6,60.4,529.6,67Z" transform="translate(-58 -20.4)" fill="#2b2b39"/>
    <path d="M579.9,77.4c-1.2-.5-2.4-1.6-4.3-1.9,9.6,7.1,1.9,18.4-4.3,21.5-4.9,2.4-7.5,9-8.1,11.9,0,5.1,4-5.4,7-7.6,6.2-4.5,10.4-4.6,12.4-12.1C584.2,82.9,581.8,78.3,579.9,77.4Z" transform="translate(-58 -20.4)" fill="#13131c"/>
    <path d="M551,64c-3.4,1.2-11.4-2.4-14.5-11.9.1,5.7,2.9,16.6,13.6,14.9,1.7-.6,3.7-1.7,5.9.6,2.2,2.2,7.9-2.9,13.5-1.7-1.9-1.2-6.6-1.7-8.5,0-1.2.6-3.8,1.3-5.1-1.2C554.8,62.3,552.2,63.2,551,64Z" transform="translate(-58 -20.4)" fill="#13131c"/>
    <path d="M549.5,109.8c9-2.8,12.6-9.1,13.2-11.9a27.047,27.047,0,0,0,.8-5.8c-.9-2.8-3.8,1.2-5.1,3.5-1.7,3.1-2-7.7,0-10.4,2.8-3.7-1.6-4.7-3.5-5.8a9.61,9.61,0,0,0-6.2-.8,3.9927,3.9927,0,0,1-4.7-1.9c-1-1.7-3.7-4-6.2,0-5.9,8.9-4.8,20.7-3.5,25.4C535.6,105.8,540.4,112.6,549.5,109.8Z" transform="translate(-58 -20.4)" fill="#ffd0b7"/>
  </g>
  <g>
    <circle cx="97.7" cy="152.6" r="97.7" fill="#fff"/>
    <circle cx="97.7" cy="152.6" r="96.7" fill="none" stroke="#217bf4" stroke-opacity="0.6" stroke-width="2"/>
  </g>
  <g>
    <path d="M267.6,193.1c-6,1.8-13.4,4.4-18.9,3-4.4-1.1-4.1-2.5-4.6-5.4,1.4-2.4,7.3-6.9,18.7-9.2C277.2,178.6,278.1,189.9,267.6,193.1Z" transform="translate(-58 -20.4)" fill="#febe9d"/>
    <path d="M202.7,150.4c-1.8-4.3-6.6-5-8.8-4.8-16,6.4-6.3,52.6-2.5,58.8,3.8,6.1,8.2,8.5,12.6,10.4s13.2.8,15.4-.5,2.8-2.7,5.3-2.9c2.5-.3,6.6-1.1,8.2-2.7s2.8-3.2,6.6-3.2,6.9-2.7,8.2-4.3,2.2-1.9,4.4-2.4,4.4-.5,5-3.2a42.7718,42.7718,0,0,0,.6-10.7c-.3-2.7-.3-2.7-1.9-2.4s-5.7,2.4-6.9,2.4a15.0886,15.0886,0,0,0-5.7.5c-2.2.8-9.4,3.7-14.1,5.1-4.7,1.3-11.6,1.6-11-.3s2.8-7.2-1.6-7.2-4.4-2.9-6.3-9.1S204.9,155.7,202.7,150.4Z" transform="translate(-58 -20.4)" fill="#217bf4"/>
    <path d="M249.2,196.6c1.4-.1,4.5-.6,6-2.1m-4.8-6.7a10.0626,10.0626,0,0,1,5.7-2.4Zm2.2,1.3,2.5-1.1Zm-3.1,3.8c1.5-.2,4.8-.9,6.3-2.1Z" transform="translate(-58 -20.4)" fill="none" stroke="#2068d9" stroke-width="1.0789"/>
    <path d="M250,199.3a17.7306,17.7306,0,0,1-.5-8,30.5564,30.5564,0,0,1-4.7,8.8c-2.8,3.2-6.3,2.9-6.9.3-.6-2.7-4.4-1.1-5.7,2.1s-4.1,7.2-8.8,7.5a19.0252,19.0252,0,0,0-7.9,1.8.3491.3491,0,0,0-.2.1c-1.3.5-.9-1.6.3-2.9,1.3-1.3,2.8-4.8,2.5-6.7-1.6,2.9-4.7,6.9-9.7,8.3-5,1.3-7.9-1.9-4.1-4.8s6.6-5.6,7.5-8c.4-.9-.1-.6-1.1,0-1.6,1-4.6,2.9-7.3,1.6-4.4-2.1-3.8-8.3-.3-9.3a25.6,25.6,0,0,1,4.5-.5c3.8-.2,8.1-.5,9-3.2-1.9,1.1-12.9,2.7-13.2-4s-.9-11.2-2.5-15a18.4867,18.4867,0,0,1-1-4.6c-.5-3.4-1.1-7.1-4-8.5-.8-.4-4.3-.3-9,.6-4.9,15.6,1.7,44.9,4.6,49.6,3.8,6.1,8.2,8.5,12.6,10.4s13.2.8,15.4-.5a14.0138,14.0138,0,0,0,1.8-1.3,6.4065,6.4065,0,0,1,3.6-1.7c2.5-.3,6.6-1.1,8.2-2.7l.3-.3a7.454,7.454,0,0,1,6.3-2.9c3.8,0,6.9-2.7,8.2-4.3A3.253,3.253,0,0,1,250,199.3Z" transform="translate(-58 -20.4)" fill="#1771ea"/>
    <path d="M194.4,208.4c1.6-1.7,4.2-4.2,6.7-4.9,3.8-1.1,1.9-1.6-1.3-.5-3.1,1.1-3.8.3-4.1-3.2s.9-9.6,2.8-13.9,4.4-17.6-.9-22.7c-2.5-2.3-7.6-2.1-12.5.3-1.2,15.9,3.8,36.8,6.2,40.8A29.1623,29.1623,0,0,0,194.4,208.4Z" transform="translate(-58 -20.4)" fill="#2068d9"/>
    <path d="M247,196.9c2.8-3.2,2.4-9,1.9-11.5.8,2.1,2,7.2,0,10.2C246.3,199.3,246.3,197.7,247,196.9Z" transform="translate(-58 -20.4)" fill="#3881f2"/>
    <path d="M171.2,274.1c9.3-3.6,21.7-1.9,26.7-.5.6.2,1.3,0,2.5-3.7,1.3-3.7.3-13.1,0-13.9a4.0562,4.0562,0,0,1,0-2.7c1.6-8.8-4.4-29.9-6.9-41.7s.9-22.7,4.4-30.7.6-18.4-.3-29.1-11.6-11.5-26.1-14.4-33-2.9-41.2,14.7-.6,40.6,0,53.7-5.7,24.3-9.7,35.8c-4.1,11.5-3.1,20-4.4,27.5-1,6,1,8.5,2.2,9.1.1,1.3.3,4.9.3,8.5,0,4.5,1.9,6.9,6.6,6.7,4.7-.3,12.3-2.9,18.9-7.2C150.8,281.8,159.6,278.6,171.2,274.1Z" transform="translate(-58 -20.4)" fill="#217bf4"/>
    <path d="M171.6,223.6c-8.5,6.4-19.1,5.2-23.2,3.7,0,1.2,2,4.1,10.1,6.4,10.1,2.9,17-3.7,19.8-9.1,2.3-4.3,7.2-10.3,9.4-12.8C185.8,213.1,180.1,217.2,171.6,223.6Z" transform="translate(-58 -20.4)" fill="#3881f2"/>
    <path d="M198,273.5c-5-1.3-17.4-3.1-26.7.5-1.3.5-2.5,1-3.7,1.5-9.8,3.8-17.4,6.8-23.3,10.6-6.6,4.3-14.1,6.9-18.9,7.2-4.7.3-6.6-2.1-6.6-6.7,0-3.6-.2-7.2-.3-8.5-1.2-.5-3.2-3.1-2.2-9.1.4-2.4.6-4.9.8-7.6a71.9024,71.9024,0,0,1,3.6-19.9c.9-2.7,2-5.3,3.1-8,3.5-8.8,7.1-17.8,6.7-27.8-.2-3.5-.8-7.6-1.5-12.2-2-12.7-4.5-28.5,1.5-41.5a4.8752,4.8752,0,0,0,.3-.7c12.4-9.8,24.6-14,34.9-15,2,.3,4,.6,6,1,1.5.3,3.1.6,4.5.9,5.6,1.1,10.5,2,14.2,3.7a6.2223,6.2223,0,0,1,1.4,1.9c4.4,8.8-4.7,19-11.9,24-7.2,5.1-5.7,7.2,2.5,5.1,7.2-1.9,6.1-1.3-2.8,3.5-1.1.6-2.4,1.3-3.8,2.1-12.3,6.7,1.6,4,11.6,1.9,10.1-2.1,8.2,2.9,6,5.1a12.0111,12.0111,0,0,1-2.9,1.9c-1.3.6-2.3,1.2-2.5,2.4-.3,2.1-2.5,4.5-5.3,5.6-.2.1-.5.2-.7.3-2.7,1-5.8,2.1-7.5,5.1-1.9,3.2-6.6,3.7-12.3,3.5-5.7-.3-13.2,1.9-6.3,7.5s16.7,1.6,21.7-.5c-11.6,12.3-28.3,3.2-31.4-1.1s-4.7-5.6-8.8-4.5-5.3,6.1-1.6,7.2a11.1814,11.1814,0,0,0,4.8.1c1.8-.2,3-.4,3,1,0,2-5,5.6-9.3,8.8-.8.6-1.6,1.1-2.3,1.7-4.7,3.5.6,6.4,4.1,7.5s2.5,2.4-3.1,7.7c-7.9,7.7,7.2,15,21.1,6.7,11.1-6.6,20.7-7.2,24.2-6.7-4,1-13.6,4.5-20.4,10.7-5.7,5.2-13.3,6.7-20,8a50.3534,50.3534,0,0,0-8.9,2.2c-7.9,2.9-3.8,8.8,2.8,9.1,3.5.1,9.7-3.2,16.8-7.1,6.2-3.4,13.2-7.1,19.6-9.2,13.8-4.5,23.3-1.1,28.3.8-8.2-.5-31.1,6.1-43,12.8a57.2128,57.2128,0,0,1-13.8,5.5c-4,1.1-7.4,2.1-11.3,5.1-7.5,5.9,2.5,9.9,9.7,8.8,3.2-.5,7.8-3.1,13-6.1,6.4-3.7,13.8-7.9,21-9.4,9.5-2,21.6.2,27.6,1.8C198.8,273.6,198.4,273.6,198,273.5Z" transform="translate(-58 -20.4)" fill="#1771ea"/>
    <path d="M130,201.2a55.5956,55.5956,0,0,0,4.2-5.7c1.6-2.7,2.5-3.7,4.7-1.9a5.44,5.44,0,0,0,7.5-.5c0,.1-.1.3-.1.4-.9,3.5-1.5,5.9,4.8,5.2a41.013,41.013,0,0,1,8.9.5c5.9.7,11.5,1.3,9.7-2.3-2.8-5.6-4.7-19.2.9-24a52.1877,52.1877,0,0,0,9.7-11.5c2.5-5.1,2.3-15-18.9-13.9-8.4.4-17.5-1.3-26.1-3a30.3613,30.3613,0,0,0-5,7.6c-6,13-3.5,28.8-1.5,41.5C129.3,196.2,129.7,198.8,130,201.2Z" transform="translate(-58 -20.4)" fill="#2068d9"/>
    <path d="M185.7,263.6c6.5.2,8-3.8,7.9-5.9,0-1.6,1.9-1.6.9,5.3-.9,6.9-12.3,3.2-22,4s-23.6,6.9-27,8.8C162.5,263.4,177.5,263.4,185.7,263.6Z" transform="translate(-58 -20.4)" fill="#3881f2"/>
    <path d="M192.9,254.8c.7,2.8,2.1,9.7,1.6,15.5m-71,9.4a55.5822,55.5822,0,0,0,.9,9.9Zm7.5-3.5c.7,2.4,2.1,7.7,1.9,9.9Zm5.1-2.7a54.8651,54.8651,0,0,1,1.6,12.8Zm6.2.6v0Zm5.1-3.8c.6,1.6,1.7,5.6.9,8.5Zm5-2.9a39.6559,39.6559,0,0,1,1.6,8.8Zm6.3-1.6v0Zm5.9-3.5c.5,2.3,1.3,7.8,0,11.2ZM169,261c.7,1.5,2.1,5.3,1.6,8.5Zm7.6-1.4v0Zm4.1-2.1a93.548,93.548,0,0,1,.9,11Zm8.5,3.2c.1,2.1.1,6.9-.6,8.8Z" transform="translate(-58 -20.4)" fill="none" stroke="#2068d9" stroke-width="1.0789"/>
    <path d="M126.6,274.9c20.5-9.3,63.9-27.1,71.9-20.3" transform="translate(-58 -20.4)" fill="none" stroke="#3881f2" stroke-width="1.0789"/>
    <path d="M116.3,269c-1,6,1,8.5,2.2,9.1.1.6.1,1.8.2,3.2,2.9-2.3,9.2-7.3,11.8-8.5-4.7,1.3-10.9,4-11.8-1.9-.8-5.9,2.3-12,4.2-15.2s4.1-12.8,1.8-24.3c-1.4,3.4-2.8,6.8-4,10.1C116.6,253,117.5,261.5,116.3,269Z" transform="translate(-58 -20.4)" fill="#2068d9"/>
    <path d="M93.3,282.4c.4-6.2,1.5-13.8,4.7-18.5,2.6-3.7,3.8-2.9,6.7-2.4,1.7,2.1,4.7,9.3,2.8,20.8C105.1,296.8,92.6,293.4,93.3,282.4Z" transform="translate(-58 -20.4)" fill="#febe9d"/>
    <path d="M91.8,273.5a14.5392,14.5392,0,0,0,.9-3.2c.9-6.9,0-13.6,0-25.1s2.8-23.5,5.3-27.8,1.9-8,3.1-10.1c1.3-2.1,5-4.5,3.8-11.8-1.3-7.2,3.1-8,3.5-17.1.3-9.1,2.2-20.6,8.2-28.6s28-13.4,30.2,1.9c2.2,15.2-6,25.4-9.4,32.1-3.5,6.7-7.9,21.1-8.5,24.8s-3.5,14.4-3.5,19c0,4.5-1.3,12.8-3.1,20-1.9,7.2-6,16-7.2,16.8-1.3.8-1.9,1.3-1.9,2.7a72.532,72.532,0,0,1-.9,7.5c-.3,1.6-.6,2.1-1.6,1.6-.9-.5-2.5-.5-5.3-.5s-7.5.5-10.4.3C92.1,275.7,91.1,274.9,91.8,273.5Z" transform="translate(-58 -20.4)" fill="#217bf4"/>
    <path d="M104,266.3c-6,1.3-9.2.2-10.1-.5a19.606,19.606,0,0,0,9.4,0,19.4325,19.4325,0,0,1,8.2-.3A39.0806,39.0806,0,0,0,104,266.3Z" transform="translate(-58 -20.4)" fill="#3881f2"/>
    <path d="M108.4,266.8c-.3,1.1-.7,3.5.3,4.5a1.5145,1.5145,0,0,1-.3,2.4m-11-4.5a6.4368,6.4368,0,0,1-.6,4.5Zm4.4-1.8-.3,5.9Z" transform="translate(-58 -20.4)" fill="none" stroke="#2068d9" stroke-width="1.0789"/>
    <path d="M108.4,275.7A11.5309,11.5309,0,0,0,110,270c-.3-3.2-4.7-4.3-7.2-3.7,3.1-1.3,10.1-4.3,11.9-11,1.9-6.7,1.3-10.7-4.7-11.2-1.3,0-2.5-.3,1.9-3.5s11.3-9.3,4.7-13.1c-6.6-3.7-11-6.7-11.9-10.7,3.1,2.1,6.9,4.5,8.5,4.8,1.4.2,1.3.1.7-2.1-.1-.3-.2-.7-.3-1.1-.9-3.2-3.1-11.2-3.1-13.6.9,2.9,2.5,7.5,6.6,9.3,4.1,1.9,5.3-3.2,4.7-6.7s-.9-6.1,3.1-9.1c4.1-2.9,10.7-13.4,6-17.9s-13.2-12.8-12.9-19.2c.2-5-.3-6.6-2.6-9.6.4-.7.9-1.3,1.3-1.9,4.3-5.7,16.7-10.1,24.3-6.6.7.4,1.4.9,2.1,1.3a11.19,11.19,0,0,1,3.8,7.1c1.8,12.7-3.5,21.8-7.4,28.4-.8,1.3-1.5,2.5-2.1,3.7-3.5,6.7-7.9,21.1-8.5,24.8-.2,1.2-.6,3-1.1,5.1-1,4.7-2.4,10.7-2.4,13.9,0,4.5-1.3,12.8-3.1,20-1.9,7.2-6,16-7.2,16.8-1.3.8-1.9,1.3-1.9,2.7a72.532,72.532,0,0,1-.9,7.5c-.3,1.6-.6,2.1-1.6,1.6C110.1,275.9,109.4,275.8,108.4,275.7Z" transform="translate(-58 -20.4)" fill="#1771ea"/>
    <path d="M132.1,197.1c-1.6,5-2.9,9.6-3.3,11.5-.2,1.2-.6,3-1.1,5.1-1,4.7-2.4,10.7-2.4,13.9,0,1.4-.1,3.2-.3,5.2-1.7-3.3-4.3-6.9-7.8-7.6-5.4-1.2-2.2-1.1.2-1.1h1c2.2,0,3.1-1.1.6-2.4-2-1.1-5-6.9-6.3-9.6,1.4,2.8,5.3,8.3,10.4,8.3,1.6,0,2.8-1.3,1.9-4C124.2,214,126.9,203.8,132.1,197.1Z" transform="translate(-58 -20.4)" fill="#2068d9"/>
    <path d="M148.7,133.1l2.2-12.4,15.6,3.2c-.4,1.6-.3,6.6.5,12.7.9,6.1,3.5,9.3,4.9,10.3Z" transform="translate(-58 -20.4)" fill="#febe9d"/>
    <path d="M151,120.7l15.2,3.2a36.7,36.7,0,0,0,0,8.4C155.4,130.9,151.6,124,151,120.7Z" transform="translate(-58 -20.4)" fill="#f2ad8a"/>
    <path d="M142.3,174.9c-.6-3.7,2-4.5,4.3-5.6,1.4-.6,3.1-1.5,3.7-3.1,4,1.6,8,2,14.3,1.2.3,3.8.9,12.5,1.1,17.1.3,5.9,2.3,15.2-4.3,12s-8.6-3.5-11.7-2.7-5.4,0-5.7-5.1C143.8,183.7,142.9,176,142.3,174.9Z" transform="translate(-58 -20.4)" fill="#8cb9ff"/>
    <path d="M149.2,193.9a22.9836,22.9836,0,0,1-1.8-11c.6-6.7,2.3-12,4.3-6.9a32.57,32.57,0,0,1,2,10.6c1.1-.6,3.5-3.2,3.7-8.8.3-6.9.6-6.7,1.4-2.7.9,4,1.1,4.5,2,0,.1-.6.2-1.2.3-1.6.5-3.2.7-4.2,3.5-4.7,0-.6-.1-1.1-.1-1.5-6.2.8-10.2.4-14.2-1.2-.6,1.7-2.3,2.5-3.7,3.2l-.6.3c-2.1,1-4.2,1.9-3.7,5.3.6,1.1,1.4,8.8,1.7,13.8C144.3,193.6,146.4,194.5,149.2,193.9Z" transform="translate(-58 -20.4)" fill="#7eaefa"/>
    <path d="M142.9,177.3c1.1-2.3,3-5.4,4.8-5.9,2.8-.8,3.4-1.3,4.3-2.1s1.7-.3,2,.8,1.1,0,2-1.1a1.72,1.72,0,0,1,2.8.5c.1.3.5.1,1.1-.2a8.6094,8.6094,0,0,1,4.7-1.2,2.2018,2.2018,0,0,0-.1-.8c-6.2.8-10.2.4-14.2-1.2-.6,1.6-2.3,2.5-3.7,3.1l-.6.3c-2.1,1-4.2,1.9-3.7,5.3A11.2326,11.2326,0,0,1,142.9,177.3Z" transform="translate(-58 -20.4)" fill="#70a2f2" opacity="0.5" style="isolation: isolate"/>
    <path d="M163.1,128c-10.4-1.3-18.7-10.2-21.4-14.3-5.5,1.3-6.6.5-6.9-3.2s6.9-5.6,8.3-11.8a32.5723,32.5723,0,0,1,19.3-23c13.2-5.3,24.5,12,24.8,17.4.3,5.3-.5,18.1-3.9,25.4C179.8,126.2,176,129.6,163.1,128Z" transform="translate(-58 -20.4)" fill="#febe9d"/>
    <path d="M142.2,113.1c-5.5,1.3-6.8,1.4-7-2.4-5.2,1.1-16.5,4.9-19.7,12-4.1,8.8,0,10.2,2.7,11.5s1.4,5.1-2.2,5.6-3.8-2.1-4.1-3.7c-1.6,7.2,4.1,7.2,6.6,6.1-1.6,4.3-1.1,7.5,2.7,8.5,3.8,1.1,0,5.1,0,8.8s4.1,5.9,4.4,8.5c.3,2.7,3.6,4,6.9,5.1s1.9,2.4.5,4.8.8,4.3,1.1,7.5,2.5,3.5,5.2,4c-2.7-4.5-1.1-6.1.5-7.5h.1c1.6-1.3,3-2.4,2.4-6.1-.5-3.7,1.9-4.5,4.1-5.6s5.2-2.7,3-7.5,4.7-8,6.3-12.8-2.2-10.7-3.8-12.8a32.0531,32.0531,0,0,1-3.8-6.7c-.5-1.3,0-1.3.3-1.1,1.4,1.3,1.6.3,1.9-1.1a46.6226,46.6226,0,0,0,.5-5.6C146.6,119.8,143.7,115.4,142.2,113.1Z" transform="translate(-58 -20.4)" fill="#2b2b39"/>
    <path d="M166,131.6v-3.4c6.8.5,10.7-.8,13.5-3.5,5.7,6.7.6,12.5-.2,13.9a8.9741,8.9741,0,0,0-5.8-2.9c-.8,0-1.6.3-2.5-1.1-.8-1.3-1.1-2.9-2.7-4C167,129.6,166.2,130.8,166,131.6Z" transform="translate(-58 -20.4)" fill="#2b2b39"/>
    <path d="M134.8,125.4c1.7,1.2,4.5,4.6,2.6,8.6" transform="translate(-58 -20.4)" fill="none" stroke="#151523" stroke-width="0.8"/>
    <path d="M142.2,128.4c3.5,2.7,9.8,9.5,6.5,14.8-4.1,6.6-5,9-5,14" transform="translate(-58 -20.4)" fill="none" stroke="#151523" stroke-width="0.8"/>
    <path d="M135.2,161c1.9-.8,5-4.1,2.6-10.9-2.5-6.8.7-10.8,2.6-11.9" transform="translate(-58 -20.4)" fill="none" stroke="#151523" stroke-width="0.8"/>
    <path d="M125.7,140.8c-2.3,2.2-5.5,7.1,0,9,6.8,2.4,8.5,4.7,6.3,9.5" transform="translate(-58 -20.4)" fill="none" stroke="#151523" stroke-width="0.8"/>
    <path d="M124.5,154.2a5.192,5.192,0,0,1,0,6" transform="translate(-58 -20.4)" fill="none" stroke="#151523" stroke-width="0.8"/>
    <path d="M121,125c-.9.9-2.2,3.3.3,5.9,3.1,3.2,2.8,5.1,1.3,7.2" transform="translate(-58 -20.4)" fill="none" stroke="#151523" stroke-width="0.8"/>
    <path d="M127.3,114a49.2618,49.2618,0,0,0-3.4,5.4,16.9907,16.9907,0,0,0-1.8,5.2,6.03,6.03,0,0,0,1.8,5.2c.9,1.1,1.7,2,2.3,2.9a4.1739,4.1739,0,0,1,.8,3.1c-.2,1-1,2.1-2.7,3.4a31.9089,31.9089,0,0,1-5,3.1c-.1.3-.2.5-.3.8a39.4326,39.4326,0,0,0,5.7-3.5,7.1258,7.1258,0,0,0,2.9-3.7,4.6655,4.6655,0,0,0-.9-3.5,26.3673,26.3673,0,0,0-2.3-2.9h0c-.2-.3-.5-.5-.7-.8a5.3874,5.3874,0,0,1-1-4,14.832,14.832,0,0,1,1.7-5,41.2039,41.2039,0,0,1,3.9-6A2.2356,2.2356,0,0,0,127.3,114Z" transform="translate(-58 -20.4)" fill="#1c1c2a" opacity="0.5" style="isolation: isolate"/>
    <path d="M144.2,116.3a20.4518,20.4518,0,0,0-.8,6.9,14.6194,14.6194,0,0,0,4.4,10c3.7,3.6,5,6.2,5,8.4s-1.3,4.2-3.1,6.6-2.9,4.8-2.7,7.7c.1,2.5,1.2,5.4,3.4,8.9a7.3523,7.3523,0,0,0-.7-2.1,4.8752,4.8752,0,0,0-.3-.7,15.9981,15.9981,0,0,1-1.9-6.2,11.7347,11.7347,0,0,1,2.6-7.4c1.8-2.4,3.2-4.5,3.2-6.9s-1.4-5.1-5.2-8.7a14.3554,14.3554,0,0,1-4.2-9.6,20.9263,20.9263,0,0,1,.7-6.4C144.5,116.6,144.3,116.5,144.2,116.3Z" transform="translate(-58 -20.4)" fill="#1c1c2a" opacity="0.5" style="isolation: isolate"/>
    <path d="M138.7,189.4a12.127,12.127,0,0,1-1.5-2.2,7.147,7.147,0,0,1-.1-6.4c1.4-2.8.9-5.3.4-7.6-.1-.3-.1-.6-.2-.9a9.2748,9.2748,0,0,1-.1-3.7,7.4759,7.4759,0,0,1,2.3-3.8,6.2215,6.2215,0,0,0,2.2-4.3,12.6276,12.6276,0,0,0-.4-3.8c0-.2-.1-.5-.1-.7a12.8745,12.8745,0,0,1-.1-4.8,10.1445,10.1445,0,0,1,3.1-5.4h0a5.9555,5.9555,0,0,0,.8-5.8,12.35,12.35,0,0,0-4.5-5.9c.7-1.2,1.1-4.2-1.2-8.1a15.3236,15.3236,0,0,1-2.5-6.9,8.2653,8.2653,0,0,1,1.2-4.7,1.2683,1.2683,0,0,1-.6-.1,8.5822,8.5822,0,0,0-1.2,4.8c.1,2.3,1.1,4.6,2.6,7.2,2.3,3.9,1.7,6.8,1.1,7.7a18.8588,18.8588,0,0,0-5.7,6.1,12.588,12.588,0,0,0-1.4,10c-.1,0-.2-.1-.3-.1-3.7-1.5-4.9-3.1-5.1-4.7-.1-1.6.9-3.3,2.1-4.8a16.7921,16.7921,0,0,0,3.5-6.2,7.0923,7.0923,0,0,0-2.2-7.6,7.1224,7.1224,0,0,1-2.2-6.1,13.77,13.77,0,0,1,1.7-5.3l-.5-.3a12.7116,12.7116,0,0,0-1.8,5.5,7.6671,7.6671,0,0,0,2.4,6.6,6.4076,6.4076,0,0,1,2,7,16.552,16.552,0,0,1-3.4,6c-1.2,1.5-2.4,3.3-2.3,5.1.1,1.9,1.6,3.7,5.4,5.2a2.01,2.01,0,0,1,.8.4,6.5329,6.5329,0,0,1,2.6,2.1,3.2562,3.2562,0,0,1,.3,2.4c-.4,1.7-1.7,3.4-2.9,5l-.2.2c-.2.3-.5.6-.7.9a6.8626,6.8626,0,0,0-1.8,4.5,6.64,6.64,0,0,0,1,3.2,17.8738,17.8738,0,0,1-2.5-2.2,6.5559,6.5559,0,0,1-1.7-4.2,7.2441,7.2441,0,0,1,.7-2.6,11.6288,11.6288,0,0,0,1.2-3.4,3.2577,3.2577,0,0,0-.4-2.6,4.9543,4.9543,0,0,0-2.4-1.7,17.8141,17.8141,0,0,0-3.9-.6l.3.6a14.84,14.84,0,0,1,3.5.6,3.5059,3.5059,0,0,1,2.1,1.4,2.8673,2.8673,0,0,1,.3,2.3,17.0208,17.0208,0,0,1-1.2,3.3,7.96,7.96,0,0,0-.8,2.8c-.3,1.2-.7,3-1.1,4.9,0,.2-.1.4-.1.6v.1a3.5447,3.5447,0,0,0,.3,1.1l.3-1.8c.2-1.1.5-2.3.7-3.3a7.476,7.476,0,0,0,1.6,2.9,18.4489,18.4489,0,0,0,3.8,3.1l.4-.4a7.6416,7.6416,0,0,1-1.7-4.1,6.6986,6.6986,0,0,1,1.7-4.1,1.38,1.38,0,0,0,.3-.4,21.8027,21.8027,0,0,0,.2,3.4,13.6921,13.6921,0,0,0,1.6,5.2c.8,1.4.5,3-.3,4.6h0a1.3949,1.3949,0,0,1,0,1.1c.2-.3.3-.5.5-.8a5.4281,5.4281,0,0,0,.3-5.1,12.6145,12.6145,0,0,1-1.5-5,19.6143,19.6143,0,0,1-.1-4.1c1.2-1.5,2.6-3.3,3-5.1a3.6131,3.6131,0,0,0-.3-2.7,5.7616,5.7616,0,0,0-2.7-2.3,12.1274,12.1274,0,0,1,1.2-10,18.4973,18.4973,0,0,1,5.4-5.9,12.8056,12.8056,0,0,1,4.4,5.7,5.2132,5.2132,0,0,1-.7,5.3,10.1962,10.1962,0,0,0-3.2,5.6,11.9218,11.9218,0,0,0,.1,5c0,.2.1.5.1.7a15.8328,15.8328,0,0,1,.3,3.7,5.713,5.713,0,0,1-2,4,7.7734,7.7734,0,0,0-2.5,4,10.2437,10.2437,0,0,0,.1,3.9c.1.3.1.6.2.9.5,2.3.9,4.6-.4,7.3a7.286,7.286,0,0,0,.1,6.9,17.3939,17.3939,0,0,0,1.1,1.8A1.7472,1.7472,0,0,1,138.7,189.4Z" transform="translate(-58 -20.4)" fill="#1c1c2a" opacity="0.5" style="isolation: isolate"/>
    <path d="M115.7,122.9c2.7-1.8,5.6-3.2,6.3-1.7,1.4,2.9,4.1,1.1,4.9-1.1.8-2.1,1.1-1.6,2.5,1.6.6,1.4,1,.7,1.5-.2.7-1.3,1.7-3,3.7-.8,1.7,1.8,3.3,0,4.8-1.7,1.6-1.8,3.1-3.5,4.5-.5a49.714,49.714,0,0,1,2.2,6.1,40.1116,40.1116,0,0,0,1.9,5.3c-.1-.7.3-.7.5-.4,1.4,1.3,1.6.3,1.9-1.1a46.6226,46.6226,0,0,0,.5-5.6,38.5243,38.5243,0,0,1-8.8-9.6c-5.5,1.3-6.5,1.4-6.8-2.4-5.1,1-16.3,4.9-19.6,12.1Z" transform="translate(-58 -20.4)" fill="#1c1c2a"/>
    <path d="M148,130.5c-.5-1.3,0-1.3.3-1.1.6.6,1,.7,1.3.5,1.9,1.8,6.1,5.8,8.3,7.5s7.9,3.6,10.4,4.3c-.9-1.9-2.7-6.5-2.3-10.2.2-.7,1-1.9,2.3-1.1,1.6,1.1,1.9,2.7,2.7,4s1.6,1.1,2.5,1.1a9.4106,9.4106,0,0,1,5.8,2.9,10.0159,10.0159,0,0,0,3.3,1.6c1.9.5,4.4,3.2,3.6,5.9s-4.1,5.3-5.8,8.3c-1.6,2.9-4.1,11.8-12.6,13.4-1.5.3-2.8.5-4.1.7-6,.8-9.9.4-13.7-1.2.4-1.1.3-2.4-.5-4.3-2.2-4.8,4.7-8,6.3-12.8s-2.2-10.7-3.8-12.8A26.5471,26.5471,0,0,1,148,130.5Z" transform="translate(-58 -20.4)" fill="#8cb9ff"/>
    <path d="M160.3,138.7c1.6,2.2,4.6,5.2,8.4,5.5,5.6.5,6.4-4.5,5.9-6.9-2.4,1.9-6.7,3.5-6.4-.3,0-.5.1-1,.1-1.5.2-2.2.3-3.9-.3-5.3-1.2-.6-1.9.5-2.1,1.2-.3,3.6,1.4,8.3,2.3,10.1A42.1691,42.1691,0,0,1,160.3,138.7Z" transform="translate(-58 -20.4)" fill="#7eaefa"/>
    <path d="M157.9,167.7a21.7179,21.7179,0,0,1-2.4-.7,5.0342,5.0342,0,0,0-.6-4.3c-1.5-2.9.8-5.3,3.3-7.8,1.6-1.6,3.2-3.2,3.9-5.1,1.3-3.4-.5-7.4-2.3-10.1,2.4,1.3,6,3.2,8.6,4.3,4.1,1.6,3.1,4.5-2.2,1.9-2.2-1.1-2.2,2.4,2.2,4.3s12.6,1.6,15.4-4.8,6.3-5.6,4.1.5-6.6,12.8-10.1,15c-1.7,1-4.1,1.3-6.6,1.6-2.6.3-5.3.6-7.3,1.9-2.9,1.8-3.7,3.3-3.8,3.9l-1.5-.3Z" transform="translate(-58 -20.4)" fill="#7eaefa"/>
    <path d="M149.9,166.2a7.7708,7.7708,0,0,0-.7-3.6c-1.4-2.9.7-5.3,2.9-7.7,1.4-1.6,2.9-3.2,3.5-5a3.0913,3.0913,0,0,0,.2-.8l3.1,3c2,1.9,8.7,2.1,12.1,1.3-2.2,1.3-5.1,1.6-10.4.8s-7,1.6-3.9,3.2,12.1-.8,15.2-2.9c-2.8,4.6-8.1,5.2-12,5.7a4.8686,4.8686,0,0,1-1.2.1,19.5136,19.5136,0,0,1-4.2-.1c-2.5-.2-4.5-.4-3.9,1.7A5.0435,5.0435,0,0,1,149.9,166.2Z" transform="translate(-58 -20.4)" fill="#70a2f2" opacity="0.5" style="isolation: isolate"/>
    <path d="M153,86.3a7.4454,7.4454,0,0,1,9.5-5.6c1.4.3.3-2.9,4.9-3.5a9.5657,9.5657,0,0,1,9,4.5c1.4,2.1,2.4,4.3,4.6,6.1,1.1,3.2,4.6,6.7,5.4,7.5,0,.8.3,6.1.3,8.5,4.6-3.5,2.7-6.6,3.8-9.6.9-2.4.2-3.8-.3-4.3a18.0532,18.0532,0,0,0-.3-5.6c-.5-1.9-2.4-2.1-3.3-2.1a2.7431,2.7431,0,0,0-.8-3.2c-.8-.5-1.6-1.9-2.7-4s-5.4-5.6-7.3-6.4-1.9-2.1-2.4-2.7c-7.1-6.1-13.3-3.5-14.7-2.9a2.798,2.798,0,0,1-2.7-.3c-10.6-6.4-17.4,2.7-19.3,5.3-11.4,4.8-15.5,11-14.7,19.5.8,8.6-1.6,11.8-3.5,13.6-1.9,1.9-1.4,3.7.3,5.9,3,4.3-2.2,4.8-4.1,5.9s-.5,4-1.4,5.3c-.8,1.3-.5,4,1.6,6.1,3.3-6.1,12.5-8.8,17.7-9.9s10.1-8.3,13.9-11.5C150.3,99.9,150.8,94.1,153,86.3Z" transform="translate(-58 -20.4)" fill="#2b2b39"/>
    <path d="M145.9,103.7c.4-6.5,1.7-14.2,4.3-20.1,1.6-3.6,3.7-6.4,6.5-7.9,2.7-1.4,6-1.5,10,.5-.1.4-.2.8-.3,1.1a1.2683,1.2683,0,0,1,.6-.1,4.2528,4.2528,0,0,0,.2-1.1,6.102,6.102,0,0,0-1.7-4.5,55.0924,55.0924,0,0,0-4.3-4.2,10.5917,10.5917,0,0,0-1.2-1,11.5179,11.5179,0,0,1-2.7-3.2,1.4453,1.4453,0,0,1-.7-.2,10.1478,10.1478,0,0,0,1.9,2.7,18.9306,18.9306,0,0,0-4.7-1.2c-3.5-.5-7.4,0-10.3,3.1-3,3.2-5.6,7.9-7.6,12.7a105.7108,105.7108,0,0,0-4.7,13.6,32.0321,32.0321,0,0,1-5.3,10.8,14.6686,14.6686,0,0,1-6.3,4.9,1.0721,1.0721,0,0,1-.2.6,15.4329,15.4329,0,0,0,7-5.3,31.4036,31.4036,0,0,0,5.4-11,123.646,123.646,0,0,1,4.7-13.6A44.6146,44.6146,0,0,1,144,67.8a11.0046,11.0046,0,0,1,8.6-3.1,24.7136,24.7136,0,0,0-11.4,9.4c-2.6,3.9-4.1,9.6-5.5,15.2l-.1.4c-1.5,5.8-3.1,11.5-5.8,15.3a17.0193,17.0193,0,0,1-8,6,23.1256,23.1256,0,0,1-6.5,1.4l-.6.3c-.1.1-.2.1-.3.2v.1a22.2845,22.2845,0,0,0,7.5-1.4,16.928,16.928,0,0,0,8.3-6.2c2.8-3.9,4.3-9.7,5.9-15.5l.1-.4c1.5-5.7,3-11.3,5.5-15.1,4.1-6.2,9.9-9,12.3-9.6a15.9965,15.9965,0,0,1,4.8,1.3,12.2661,12.2661,0,0,0-11,8.1c-.8,2.1-1.9,5.5-3.1,9.6l-.1.3c-1.3,4.2-2.8,9-4.4,13.6a111.6992,111.6992,0,0,1-5.1,12.7,37.5629,37.5629,0,0,1-2.3,4.1h0c.2-.1.5-.1.7-.2a38.742,38.742,0,0,0,2-3.6A111.6992,111.6992,0,0,0,140.6,98c1.6-4.6,3.1-9.4,4.4-13.6l.1-.3c1.3-4,2.3-7.5,3.1-9.5a11.8513,11.8513,0,0,1,11.6-7.7c.4.3.7.7,1.1,1a53.0052,53.0052,0,0,1,4.2,4.1,6.5456,6.5456,0,0,1,1.6,3.7c-4.1-2-7.5-1.9-10.3-.4-2.9,1.5-5.1,4.5-6.7,8.1-2.7,6.1-4,14.2-4.4,20.8A2.6513,2.6513,0,0,0,145.9,103.7Z" transform="translate(-58 -20.4)" fill="#1c1c2a" opacity="0.5" style="isolation: isolate"/>
    <path d="M119.2,108c3.2-1.1,5-3.9,6.2-7.2a47.02,47.02,0,0,0,1.8-6.7,27.4111,27.4111,0,0,0,.5-2.8c.3-1.4.5-2.8.8-4.1,1.3-6.2,5.4-14.4,7.8-18.9a2.994,2.994,0,0,0-.8.4c-2.5,4.6-6.3,12.4-7.6,18.4-.3,1.3-.5,2.7-.8,4.1-.2.9-.3,1.8-.5,2.8a57.6742,57.6742,0,0,1-1.7,6.6c-1.2,3.3-3,5.9-6,6.9C119,107.7,119.1,107.8,119.2,108Z" transform="translate(-58 -20.4)" fill="#1c1c2a" opacity="0.5" style="isolation: isolate"/>
    <path d="M186.5,96.1c.4,0,.8.1,1.2.1h2.4a.7494.7494,0,0,1,.1-.5,19.2187,19.2187,0,0,1-2.4,0,4.8686,4.8686,0,0,1-1.2-.1C186.4,95.7,186.4,95.9,186.5,96.1Z" transform="translate(-58 -20.4)" fill="#3a0a44"/>
    <path d="M181.2,88.5a19.8691,19.8691,0,0,0,9.2,2,1.38,1.38,0,0,0-.3-.4h0V90a19.46,19.46,0,0,1-9.5-2.4l.3.3C181.1,88.1,181.1,88.3,181.2,88.5Z" transform="translate(-58 -20.4)" fill="#3a0a44"/>
    <path d="M162.6,69.1c1.2-1.4,5-3.4,11.3-2.2a2.092,2.092,0,0,0,.4.6c-6.4-1.4-10.1.7-11.2,1.9Z" transform="translate(-58 -20.4)" fill="#1c1c2a" opacity="0.5" style="isolation: isolate"/>
    <path d="M184.7,82.4a3.19,3.19,0,0,0,2.1-.4c0,.1-.1.2-.1.4h.5a3.28,3.28,0,0,1-2.5.5,6.87,6.87,0,0,1-3.5-2.1,34.1337,34.1337,0,0,1-4.5-5.7c-.4-.5-.7-1-1-1.4-1-1.4-2.7-1.6-4.4-1.4a15.9938,15.9938,0,0,0-4.7,1.7l-.3-.5a13.9618,13.9618,0,0,1,4.9-1.8c1.9-.3,3.8,0,5,1.6.3.4.6.9,1,1.4a38.67,38.67,0,0,0,4.4,5.6A5.1184,5.1184,0,0,0,184.7,82.4Z" transform="translate(-58 -20.4)" fill="#1c1c2a" opacity="0.5" style="isolation: isolate"/>
    <path d="M166.7,70a6.2916,6.2916,0,0,1,9,1.3,40.562,40.562,0,0,0,7.6,7.5m-12.7-3.5c2.4.6,7.7,2.7,9.3,6.2,1.9,4.3,5.4,7,8.2,6.7m-2.3,2.7a2.5842,2.5842,0,0,0,3.3,1.1M165.4,64.6c1.2-.2,3.9-.4,5.2.3" transform="translate(-58 -20.4)" fill="none" stroke="#151523" stroke-width="0.8"/>
    <path d="M160.3,69.8c-3.6-.1-11.6,2.6-14.6,13.9m-.9-9.3c-2.1,3.8-6.6,13.1-8.1,19.5-1.9,8-3.3,18.2-16.8,20.3m2.7-13.6c1.3-2,3.6-7.1,3-11.8-.8-5.9.3-11.5,5.2-14.7M153,63.2c-4.8-.4-14.9,1.3-17.1,10.7S129,95.3,127,100.1" transform="translate(-58 -20.4)" fill="none" stroke="#151523" stroke-width="0.8"/>
  </g>
  <path d="M289.5,453.3a93.8,93.8,0,1,0,93.8-93.8A93.8055,93.8055,0,0,0,289.5,453.3Z" transform="translate(-58 -20.4)" fill="#fff"/>
  <path d="M383.3,546.1a92.8,92.8,0,1,1,92.8-92.8A92.8026,92.8026,0,0,1,383.3,546.1Z" transform="translate(-58 -20.4)" fill="none" stroke="#2773d9" stroke-opacity="0.6" stroke-width="2"/>
  <path d="M401.1,391.7c-9.5,19.7-25.9,8-29.6,0,7.4,0,5.1-15.1,4-22.6h22C397.1,380.7,399.7,389,401.1,391.7Z" transform="translate(-58 -20.4)" fill="#fcc4ac"/>
  <path d="M401.1,391.7c-9.5,19.7-25.9,8-29.6,0,7.4,0,5.1-15.1,4-22.6h22C397.1,380.7,399.7,389,401.1,391.7Z" transform="translate(-58 -20.4)" fill="url(#b)"/>
  <path d="M351.1,401.4c-.1,32.3-8.9,117.6-10.2,130.9-.7,7,16.5,13.2,35.7,14.5,24.9,1.8,45.8-6.6,50.3-10.5,1.1-38.3,3.1-122,3.1-129.1-9.3-6.6-22.7-12.9-28.9-15.5-12.3,7.6-21.1,5-26.9-.9C365.6,392.4,355.1,398.9,351.1,401.4Z" transform="translate(-58 -20.4)" fill="#307fe2"/>
  <path d="M351.1,401.4c-.1,32.3-8.9,117.6-10.2,130.9-.7,7,16.5,13.2,35.7,14.5,24.9,1.8,45.8-6.6,50.3-10.5,1.1-38.3,3.1-122,3.1-129.1-9.3-6.6-22.7-12.9-28.9-15.5-12.3,7.6-21.1,5-26.9-.9C365.6,392.4,355.1,398.9,351.1,401.4Z" transform="translate(-58 -20.4)" fill="url(#c)"/>
  <path d="M351.1,401.4c-.1,32.3-8.9,117.6-10.2,130.9-.7,7,16.5,13.2,35.7,14.5,24.9,1.8,45.8-6.6,50.3-10.5,1.1-38.3,3.1-122,3.1-129.1-9.3-6.6-22.7-12.9-28.9-15.5-12.3,7.6-21.1,5-26.9-.9C365.6,392.4,355.1,398.9,351.1,401.4Z" transform="translate(-58 -20.4)" fill="#2773d9"/>
  <path d="M373,391.1c.1,0,.3-.1.4-.1a170.3233,170.3233,0,0,1,1.9,20c.4,9.4-.1,19.1-2.6,26-3,8.5-3,18.8-2.3,28.5.3,4.1.8,8.1,1.2,11.7h0c.1.6.1,1.2.2,1.8a94.8284,94.8284,0,0,1,.9,10.5v1.8c0,4.8,0,8.9-1.3,13.8-1.5,5.5-4.6,11.9-11.3,21.3a6.6823,6.6823,0,0,0-.7,4.8,24.695,24.695,0,0,0,2,6.4,57.6189,57.6189,0,0,0,3.9,7.4c-.2,0-.4-.1-.6-.1a59.6716,59.6716,0,0,1-3.7-7.1,25.9746,25.9746,0,0,1-2-6.6,7.0732,7.0732,0,0,1,.8-5.1h0c6.7-9.4,9.8-15.8,11.3-21.2,1.3-4.8,1.3-8.9,1.3-13.7h0v-1.8a94.8284,94.8284,0,0,0-.9-10.5c-.1-.6-.1-1.2-.2-1.8h0c-.4-3.6-.9-7.6-1.2-11.7-.8-9.6-.8-20,2.3-28.6,2.4-6.8,2.9-16.5,2.6-25.8A164.4047,164.4047,0,0,0,373,391.1Z" transform="translate(-58 -20.4)" fill="#fff" opacity="0.35" style="isolation: isolate"/>
  <path d="M344.4,537.9a4.348,4.348,0,0,0,.7.4,26.0853,26.0853,0,0,1-1.8-5.9,6.6823,6.6823,0,0,1,.7-4.8c6.7-9.4,9.9-15.8,11.4-21.3,1.3-4.9,1.3-9,1.3-13.8h0v-1.8a94.8284,94.8284,0,0,0-.9-10.5c-.1-.6-.1-1.2-.2-1.8h0c-.4-3.6-.9-7.6-1.2-11.7-.8-9.6-.8-19.9,2.3-28.5,2.4-6.9,3-16.6,2.6-26-.2-5.3-.7-10.4-1.2-14.9a.7581.7581,0,0,1-.4.2c.5,4.4,1,9.5,1.2,14.7.4,9.3-.2,19-2.6,25.8-3.1,8.6-3.1,19-2.3,28.6.3,4.1.8,8.1,1.2,11.7h0c.1.6.1,1.2.2,1.8a94.8284,94.8284,0,0,1,.9,10.5v1.8h0c0,4.8,0,8.8-1.3,13.7-1.5,5.4-4.6,11.8-11.3,21.2h0a7.0727,7.0727,0,0,0-.8,5.1A23.8131,23.8131,0,0,0,344.4,537.9Z" transform="translate(-58 -20.4)" fill="#fff" opacity="0.35" style="isolation: isolate"/>
  <path d="M381.6,547.4a58.0825,58.0825,0,0,1-3.1-6.1,25.9746,25.9746,0,0,1-2-6.6,7.0732,7.0732,0,0,1,.8-5.1h0c6.7-9.4,9.8-15.8,11.3-21.2,1.3-4.8,1.3-8.9,1.3-13.7h0v-1.8c0-2.8-.4-6.4-.8-10.5-.1-.6-.1-1.2-.2-1.8h0c-.4-3.6-.9-7.6-1.2-11.7-.8-9.6-.8-20,2.3-28.6,2.4-6.8,2.9-16.5,2.6-25.8-.3-6.8-1-13.4-1.7-18.5.1,0,.3-.1.4-.1a156.0189,156.0189,0,0,1,1.7,18.6c.4,9.4-.1,19.1-2.6,26-3,8.5-3,18.8-2.3,28.4.3,4.1.8,8.1,1.2,11.7h0c.1.6.1,1.2.2,1.8a94.8284,94.8284,0,0,1,.9,10.5v1.8c0,4.8,0,8.9-1.3,13.8-1.5,5.5-4.6,11.9-11.4,21.3a6.6824,6.6824,0,0,0-.7,4.8,24.6968,24.6968,0,0,0,2,6.4,54.0762,54.0762,0,0,0,3.3,6.3C381.9,547.5,381.8,547.5,381.6,547.4Z" transform="translate(-58 -20.4)" fill="#fff" opacity="0.35" style="isolation: isolate"/>
  <path d="M400.1,548.6a54.574,54.574,0,0,1-3.8-7.2,25.9752,25.9752,0,0,1-2-6.6,7.0732,7.0732,0,0,1,.8-5.1h0c6.7-9.4,9.8-15.8,11.3-21.2,1.3-4.8,1.3-8.9,1.3-13.7V493a94.8284,94.8284,0,0,0-.9-10.5c-.1-.6-.1-1.2-.2-1.8h0c-.4-3.6-.9-7.6-1.2-11.7-.8-9.6-.8-20,2.3-28.6,2.4-6.8,2.9-16.5,2.6-25.8a186.2615,186.2615,0,0,0-1.9-19.6c.2.1.3.2.5.2a163.0262,163.0262,0,0,1,1.8,19.4c.4,9.4-.1,19.1-2.6,26-3,8.5-3,18.8-2.3,28.4.3,4.1.8,8.1,1.2,11.7h0c.1.6.1,1.2.2,1.8a94.8284,94.8284,0,0,1,.9,10.5v1.8h0c0,4.8,0,8.9-1.3,13.8-1.5,5.5-4.6,11.9-11.4,21.3a6.6823,6.6823,0,0,0-.7,4.8,24.695,24.695,0,0,0,2,6.4,65.0983,65.0983,0,0,0,3.9,7.4A.7494.7494,0,0,1,400.1,548.6Z" transform="translate(-58 -20.4)" fill="#fff" opacity="0.35" style="isolation: isolate"/>
  <path d="M418.3,547.7c-1.2-2-2.3-4.2-3.3-6.3a25.9752,25.9752,0,0,1-2-6.6,7.073,7.073,0,0,1,.8-5.1h0c6.7-9.4,9.8-15.8,11.3-21.2,1.3-4.8,1.3-8.9,1.3-13.7V493a94.8284,94.8284,0,0,0-.9-10.5c-.1-.6-.1-1.2-.2-1.8h0c-.4-3.6-.9-7.6-1.2-11.7-.8-9.6-.8-20,2.3-28.6,2.4-6.8,2.9-16.5,2.6-25.8-.1-2.9-.3-5.8-.6-8.5.2.1.3.2.5.3.2,2.6.4,5.4.5,8.2.4,9.4-.1,19.1-2.6,26-3,8.5-3,18.8-2.3,28.5.3,4.1.8,8.1,1.2,11.7.1.6.1,1.2.2,1.8a94.8284,94.8284,0,0,1,.9,10.5v1.8c0,4.8,0,8.9-1.3,13.8-1.5,5.5-4.6,11.9-11.3,21.3a6.6821,6.6821,0,0,0-.7,4.8,24.6956,24.6956,0,0,0,2,6.4,48.3035,48.3035,0,0,0,3.3,6.4A1.0882,1.0882,0,0,1,418.3,547.7Z" transform="translate(-58 -20.4)" fill="#fff" opacity="0.35" style="isolation: isolate"/>
  <path d="M362.2,337.3c-.3,6.8,0,23.3,0,35.4,0,20.5,30.7,4.6,35.3-3.6,9.2-16.2-1-30.9-2.9-31.7H362.2Z" transform="translate(-58 -20.4)" fill="url(#d)"/>
  <path d="M362.2,337.3c-.3,6.8,0,23.3,0,35.4,0,20.5,30.7,4.6,35.3-3.6,9.2-16.2-1-30.9-2.9-31.7H362.2Z" transform="translate(-58 -20.4)" fill="#fcc4ac"/>
  <path d="M398,331.4c6.7-1.3,5.7,4.2,5.3,5,16,4.4-3.5,36.7-5.8,37.4v-6c0-2.4,4.7-4.9,2.1-9.1-3.4-5.6-4.2,5.4-4.2,5.4-2.4-1.3-3.3-10.4-1-15.6-7.9,3.5-13.1-3-14.1-4.9-5.6,3.2-14.2,1.9-16.9-.7a30.5961,30.5961,0,0,0-1.3,9.1c-6.4-3.4-9.7-16.1-6.3-15-.4-25.3,21.9-16.2,24.5-13.2s3.3,2.2,3.6,1.9c9.4-4.6,14,0,13.1,2.9C396.1,331.6,397.7,331.4,398,331.4Z" transform="translate(-58 -20.4)" fill="#6e000e"/>
  <path d="M265.7,444.5c-4.8.4-8.9-2.4-8-2.8,12.5-4.3,29.2,1.1,38.9,4,3.4,6.9-2.2,14.5-5.5,17.4-1.6-1.7-5-3.8-7.2-3.8-11.3-.6-22.1,15.6-33.1,7.5C241.9,460.5,257,449.3,265.7,444.5Z" transform="translate(-58 -20.4)" fill="#f4b88e"/>
  <path d="M265.7,444.5c-4.8.4-8.9-2.4-8-2.8,12.5-4.3,29.2,1.1,38.9,4,3.4,6.9-2.2,14.5-5.5,17.4-1.6-1.7-5-3.8-7.2-3.8-11.3-.6-22.1,15.6-33.1,7.5C241.9,460.5,257,449.3,265.7,444.5Z" transform="translate(-58 -20.4)" fill="#fcc4ac"/>
  <path d="M351.1,401.4c1.2,21.6-2.4,58.9-5.1,77.9-2.9,7.1-63.5-15.1-61.9-19.4s5.7-10.6,7.6-15.7c1.4-3.5,36.3,12.9,37.6,7S331.6,412.4,351.1,401.4Z" transform="translate(-58 -20.4)" fill="#307fe2"/>
  <path d="M351.1,401.4c1.2,21.6-2.4,58.9-5.1,77.9-2.9,7.1-63.5-15.1-61.9-19.4s5.7-10.6,7.6-15.7c1.4-3.5,36.3,12.9,37.6,7S331.6,412.4,351.1,401.4Z" transform="translate(-58 -20.4)" fill="url(#e)"/>
  <path d="M351.1,401.4c1.2,21.6-2.4,58.9-5.1,77.9-2.9,7.1-63.5-15.1-61.9-19.4s5.7-10.6,7.6-15.7c1.4-3.5,36.3,12.9,37.6,7S331.6,412.4,351.1,401.4Z" transform="translate(-58 -20.4)" fill="#2773d9"/>
  <path d="M348.2,403.1c-4.4,11.8-5.6,28.7-3.6,41.6,1,6.4,1.5,12,.7,16.6a13.698,13.698,0,0,1-7.6,10.5,5.4249,5.4249,0,0,1-4.8.2,22.3841,22.3841,0,0,1-3.8-1.9l-1.5-.9c-3.9-2.2-8.9-4.2-16.3-1.9-5.8,1.8-11.5-.1-16-2.9-4.6-2.9-7.9-6.7-8.9-8.9l-.4.2c1.1,2.3,4.5,6.2,9.1,9.1s10.5,4.8,16.4,3c7.2-2.2,12-.2,15.9,1.9a10.93,10.93,0,0,0,1.5.8,28.9425,28.9425,0,0,0,3.9,2,5.956,5.956,0,0,0,5.2-.2,14.423,14.423,0,0,0,7.8-10.8c.9-4.7.3-10.4-.7-16.8-2-12.8-.7-29.6,3.6-41.4Zm-9.3,13c.1-.8.3-1.5.4-2.1l-.4-.1c-.1.6-.2,1.3-.4,2.1-.8,4.1-1.9,10-2.5,16-.7,7.1-.6,14.5,1.6,19.3,2.6,5.7,1.6,9.6-.8,11.5-2.4,2-6.2,2-9.2-.4a14.9185,14.9185,0,0,0-7.6-3.2c-3.4-.5-7.5.2-12.2,3.2-1.2.8-3.1.9-5.3.5a20.9676,20.9676,0,0,1-6.7-2.7,15.2646,15.2646,0,0,1-5.1-5,7.7418,7.7418,0,0,1-.9-6.3l-.4-.1a7.6929,7.6929,0,0,0,.9,6.6,15.2718,15.2718,0,0,0,5.3,5.1,19.64,19.64,0,0,0,6.8,2.8c2.2.4,4.2.3,5.6-.6,4.6-3,8.7-3.6,11.9-3.2a14.5441,14.5441,0,0,1,7.4,3.2c3.2,2.4,7.2,2.4,9.8.3s3.6-6.3.9-12.1c-2.2-4.7-2.2-12-1.6-19.1C337,426.1,338.1,420.2,338.9,416.1Z" transform="translate(-58 -20.4)" fill="#fff" fill-rule="evenodd" opacity="0.35" style="isolation: isolate"/>
  <path d="M291.7,444.2c-2,5.1-6,11.4-7.6,15.7-.3.7,1.3,2,4,3.6,4.5-3.3,8.3-13.9,9.7-18.8C294.4,443.7,292.1,443.3,291.7,444.2Z" transform="translate(-58 -20.4)" fill="#105cc1"/>
  <path d="M417,549.9c2.1-1,9.2-15.2,13-25.1l-8.6-6.9c-12,4-17,16.1-14,15.6s3.3,1.1.7,4.6C398.1,551.3,414.1,551.2,417,549.9Z" transform="translate(-58 -20.4)" fill="#fcc4ac"/>
  <path d="M455.3,476.2c5.3-17.6-12-58.4-25.3-69,0,4.3-.8,24.4-1.3,51.1,7.6,13.7-11.2,55.3-12.9,58.8-1.8,3.5,13.6,16.6,16.1,11.5C434.4,523.6,449.3,495.9,455.3,476.2Z" transform="translate(-58 -20.4)" fill="#307fe2"/>
  <path d="M455.3,476.2c5.3-17.6-12-58.4-25.3-69,0,4.3-.8,24.4-1.3,51.1,7.6,13.7-11.2,55.3-12.9,58.8-1.8,3.5,13.6,16.6,16.1,11.5C434.4,523.6,449.3,495.9,455.3,476.2Z" transform="translate(-58 -20.4)" fill="url(#f)"/>
  <path d="M455.3,476.2c5.3-17.6-12-58.4-25.3-69,0,4.3-.8,24.4-1.3,51.1,7.6,13.7-11.2,55.3-12.9,58.8-1.8,3.5,13.6,16.6,16.1,11.5C434.4,523.6,449.3,495.9,455.3,476.2Z" transform="translate(-58 -20.4)" fill="#2773d9"/>
  <path d="M431.9,418.8c-.7-.9-1.4-1.7-1.9-2.4l-.4.3c.6.7,1.2,1.6,2,2.5a127.7526,127.7526,0,0,1,7.8,10.4c3.3,5.2,5.7,10.8,5,15.8-.5,3.2.3,6.6,1.4,10,.8,2.3,1.8,4.7,2.8,7,.4,1,.9,2,1.3,3a32.7495,32.7495,0,0,1,2.6,9.3,9.5159,9.5159,0,0,1-2.9,7.8c-4.5,4.4-5.4,8.3-6.3,12.1a8.3309,8.3309,0,0,1-.4,1.5,17.4937,17.4937,0,0,1-2.6,6.2,22.7547,22.7547,0,0,1-7.1,6.4,12.7106,12.7106,0,0,0-3.7,4.4,33.2362,33.2362,0,0,0-2.7,6.4,26.0781,26.0781,0,0,0-1.3,6,7.304,7.304,0,0,0,0,2.1.9015.9015,0,0,0,.1.5,30.8443,30.8443,0,0,1-4.8-3.5,22.9766,22.9766,0,0,1,1-12.1c1.4-4,3.8-7.3,7.1-8.9a10.19,10.19,0,0,0,5.5-5.3,17.9188,17.9188,0,0,0,1-6.6v-.3a26.8489,26.8489,0,0,1,.8-6.8,14.28,14.28,0,0,1,4.8-7c2.7-2.2,3.6-4.5,3.5-6.8a15.5341,15.5341,0,0,0-2.8-6.7c-.5-.7-.9-1.4-1.4-2.1a33.0823,33.0823,0,0,1-2.9-4.7,9.8706,9.8706,0,0,1-1.3-6.8,21.9322,21.9322,0,0,0-6.4-21.4l-.3.3c2.2,2.1,9.2,9.5,6.3,20.9-.6,2.5.1,4.8,1.3,7.2a33.8459,33.8459,0,0,0,3,4.7c.5.7.9,1.4,1.4,2.1a14.6228,14.6228,0,0,1,2.8,6.5c.2,2.1-.7,4.2-3.3,6.4a14.8118,14.8118,0,0,0-5,7.2,27.8291,27.8291,0,0,0-.9,6.9v.3a18.6868,18.6868,0,0,1-1,6.4,9.7621,9.7621,0,0,1-5.2,5c-3.4,1.6-5.9,5.1-7.3,9.1a24.095,24.095,0,0,0-1,12.4v.1h.1a32.3789,32.3789,0,0,0,5.6,4l.2-.4c-.1,0-.1-.1-.2-.3a1.2683,1.2683,0,0,1-.1-.6,13.1838,13.1838,0,0,1,0-2,31.86,31.86,0,0,1,1.3-5.9,39.5835,39.5835,0,0,1,2.6-6.3,11.8132,11.8132,0,0,1,3.6-4.2,23.97,23.97,0,0,0,7.3-6.5,19.2078,19.2078,0,0,0,2.6-6.4l.3-1.5c.9-3.8,1.8-7.6,6.1-11.8a9.886,9.886,0,0,0,3-8.1,33.0571,33.0571,0,0,0-2.6-9.5c-.4-1-.9-2-1.3-3.1-1-2.3-2-4.6-2.8-7a22.8835,22.8835,0,0,1-1.4-9.8c.7-5.2-1.8-10.9-5.1-16.1C437.2,425.4,434.2,421.7,431.9,418.8Z" transform="translate(-58 -20.4)" fill="#fff" fill-rule="evenodd" opacity="0.35" style="isolation: isolate"/>
  <path d="M424.2,496.3c4.7-13.6,8.9-30.3,4.5-38C440.3,466.4,431.5,484.6,424.2,496.3Z" transform="translate(-58 -20.4)" fill="#105cc1"/>
  <path d="M415.8,517.1c-1.8,3.5,13.6,16.6,16.1,11.5.2-.4.5-.9.8-1.6-3.7-.8-12-4.5-15.7-12.6Q416.1,516.5,415.8,517.1Z" transform="translate(-58 -20.4)" fill="#307fe2"/>
  <path d="M415.8,517.1c-1.8,3.5,13.6,16.6,16.1,11.5.2-.4.5-.9.8-1.6-3.7-.8-12-4.5-15.7-12.6Q416.1,516.5,415.8,517.1Z" transform="translate(-58 -20.4)" fill="url(#g)"/>
  <path d="M415.8,517.1c-1.8,3.5,13.6,16.6,16.1,11.5.2-.4.5-.9.8-1.6-3.7-.8-12-4.5-15.7-12.6Q416.1,516.5,415.8,517.1Z" transform="translate(-58 -20.4)" fill="#105cc1"/>
  <g>
    <path d="M306.6,355H229.7a6.1243,6.1243,0,0,0-6.1,6.1v17.4a6.1243,6.1243,0,0,0,6.1,6.1h62.6l19.2,6.2-5.3-6.2h.3a6.1243,6.1243,0,0,0,6.1-6.1V361.1A5.9144,5.9144,0,0,0,306.6,355Z" transform="translate(-58 -20.4)" fill="#8bbafa"/>
    <path d="M244.2,372.3a2.9,2.9,0,1,0-2.9-2.9A3.04,3.04,0,0,0,244.2,372.3Zm16.3,0a2.9,2.9,0,1,0-2.9-2.9A3.04,3.04,0,0,0,260.5,372.3Zm18.7-2.9a2.9,2.9,0,1,1-2.9-2.9A2.9021,2.9021,0,0,1,279.2,369.4Zm13,2.9a2.9,2.9,0,1,0-2.9-2.9A2.9021,2.9021,0,0,0,292.2,372.3Z" transform="translate(-58 -20.4)" fill="#fff" fill-rule="evenodd"/>
  </g>
  <g>
    <path d="M200.5,28V49.4a7.5966,7.5966,0,0,0,7.6,7.6h.4L202,64.7,225.6,57h77a7.5966,7.5966,0,0,0,7.6-7.6V28a7.5966,7.5966,0,0,0-7.6-7.6H208.1A7.5966,7.5966,0,0,0,200.5,28Z" transform="translate(-58 -20.4)" fill="#8bbafa"/>
    <path d="M288.4,38.1a3.5,3.5,0,1,0-3.5,3.5A3.5431,3.5431,0,0,0,288.4,38.1Zm-20.1,0a3.5,3.5,0,1,0-3.5,3.5A3.5431,3.5431,0,0,0,268.3,38.1Zm-23-3.5a3.5,3.5,0,1,1-3.5,3.5A3.4782,3.4782,0,0,1,245.3,34.6Zm-15.9,3.5a3.5,3.5,0,1,0-3.5,3.5A3.5431,3.5431,0,0,0,229.4,38.1Z" transform="translate(-58 -20.4)" fill="#fff" fill-rule="evenodd"/>
  </g>
  <g>
    <path d="M404.9,78.1H328a6.1243,6.1243,0,0,0-6.1,6.1v17.4a6.1243,6.1243,0,0,0,6.1,6.1h62.6l19.2,6.2-5.3-6.2h.3a6.1243,6.1243,0,0,0,6.1-6.1V84.3A6,6,0,0,0,404.9,78.1Z" transform="translate(-58 -20.4)" fill="#ffbe56"/>
    <path d="M342.5,95.4a2.9,2.9,0,1,0-2.9-2.9A2.9021,2.9021,0,0,0,342.5,95.4Zm16.3,0a2.9,2.9,0,1,0-2.9-2.9A2.9021,2.9021,0,0,0,358.8,95.4Zm18.7-2.9a2.9,2.9,0,1,1-2.9-2.9A2.9021,2.9021,0,0,1,377.5,92.5Zm12.9,2.9a2.9,2.9,0,1,0-2.9-2.9A2.9684,2.9684,0,0,0,390.4,95.4Z" transform="translate(-58 -20.4)" fill="#fff" fill-rule="evenodd"/>
  </g>
</svg>
