<?xml version="1.0" encoding="utf-8"?>
<!-- Generator: Adobe Illustrator 25.3.1, SVG Export Plug-In . SVG Version: 6.00 Build 0)  -->
<svg version="1.1" id="Layer_1" xmlns="http://www.w3.org/2000/svg" xmlns:xlink="http://www.w3.org/1999/xlink" x="0px" y="0px"
	 viewBox="0 0 644 551" style="enable-background:new 0 0 644 551;" xml:space="preserve">
<style type="text/css">
	
		.st0{opacity:0.7;fill:none;stroke:#2B2B39;stroke-linecap:round;stroke-linejoin:round;stroke-dasharray:3,3;enable-background:new    ;}
	.st1{fill:#FFFFFF;}
	.st2{fill:none;stroke:#FFAF2E;stroke-width:2;stroke-opacity:0.6;}
	.st3{fill:#C4C4C4;filter:url(#Adobe_OpacityMaskFilter);}
	.st4{mask:url(#mask0_5_1388_1_);}
	.st5{opacity:0.5;fill:#FFB83B;enable-background:new    ;}
	.st6{fill:#FFF9EF;}
	.st7{fill:#FFAF2E;}
	.st8{fill:#F3A00D;}
	.st9{fill:#F9A319;}
	.st10{fill:#FFD0B7;}
	.st11{fill:url(#SVGID_1_);}
	.st12{fill:#2B2B39;}
	.st13{fill:#13131C;}
	.st14{fill:none;stroke:#217BF4;stroke-width:2;stroke-opacity:0.6;}
	.st15{fill:#C4C4C4;filter:url(#Adobe_OpacityMaskFilter_1_);}
	.st16{mask:url(#mask1_5_1388_1_);}
	.st17{fill:#FEBE9D;}
	.st18{fill:#217BF4;}
	.st19{fill:none;stroke:#2068D9;stroke-width:1.0789;}
	.st20{fill:#1771EA;}
	.st21{fill:#2068D9;}
	.st22{fill:#3881F2;}
	.st23{fill:none;stroke:#3881F2;stroke-width:1.0789;}
	.st24{fill:#F2AD8A;}
	.st25{fill:#8CB9FF;}
	.st26{fill:#7EAEFA;}
	.st27{opacity:0.5;fill:#70A2F2;enable-background:new    ;}
	.st28{fill:none;stroke:#151523;stroke-width:0.8;}
	.st29{opacity:0.5;fill:#1C1C2A;enable-background:new    ;}
	.st30{fill:#1C1C2A;}
	.st31{fill:#3A0A44;}
	.st32{fill:none;stroke:#2773D9;stroke-width:2;stroke-opacity:0.6;}
	.st33{fill:#FCC4AC;}
	.st34{fill:url(#SVGID_2_);}
	.st35{fill:#307FE2;}
	.st36{fill:url(#SVGID_3_);}
	.st37{fill:#2773D9;}
	.st38{opacity:0.35;fill:#FFFFFF;enable-background:new    ;}
	.st39{fill:url(#SVGID_4_);}
	.st40{fill:#6E000E;}
	.st41{fill:#F4B88E;}
	.st42{fill:url(#SVGID_5_);}
	.st43{opacity:0.35;fill-rule:evenodd;clip-rule:evenodd;fill:#FFFFFF;enable-background:new    ;}
	.st44{fill:#105CC1;}
	.st45{fill:url(#SVGID_6_);}
	.st46{fill:url(#SVGID_7_);}
	.st47{fill:#8BBAFA;}
	.st48{fill-rule:evenodd;clip-rule:evenodd;fill:#FFFFFF;}
	.st49{fill:#FFBE56;}
</style>
<path class="st0" d="M144.4,172.9l213.5,335.6l214.3-335.6H144.4z"/>
<circle class="st1" cx="541.6" cy="179.6" r="96.4"/>
<circle class="st2" cx="541.6" cy="179.6" r="95.4"/>
<defs>
	<filter id="Adobe_OpacityMaskFilter" filterUnits="userSpaceOnUse" x="378.3" y="52.1" width="262.8" height="261.8">
		<feColorMatrix  type="matrix" values="1 0 0 0 0  0 1 0 0 0  0 0 1 0 0  0 0 0 1 0"/>
	</filter>
</defs>
<mask maskUnits="userSpaceOnUse" x="378.3" y="52.1" width="262.8" height="261.8" id="mask0_5_1388_1_">
	<path class="st3" d="M638.1,179.6c0-53.3-43.2-130.6-96.4-130.6c-49.5,0-90.2,66.8-95.8,119c-49.1-6.2-114.9-30.3-55.1,14.8
		c23.8,17.9,38.4,43.8,66.9,44.3c16.6,29.2,48,49,84,49c26.5,0,50.5-10.7,67.9-28l-4.6,43.2C605,374.4,660.8,259.3,638.1,179.6z"/>
</mask>
<g class="st4">
	<path class="st1" d="M537.1,127.5c-25.9,20.7-23.3,64.7-24.9,88.6c-1.1,16.8-4.5,40.8-6.7,54.5l48.6,7.2v-84.2
		c0-28.1,2-62.6,9.6-70c-5.3-0.6-10-0.4-13.3,0c-2.6,0-5.8,0.4-9.3,1.8C539.6,126.3,538.5,126.7,537.1,127.5z"/>
	<path class="st5" d="M537.1,127.5c-25.9,20.7-23.3,64.7-24.9,88.6c-1.1,16.8-4.5,40.8-6.7,54.5c18.5,6.8,26.6,8.4,48.6,7.2v-84.2
		c0-21.7,1.2-47.3,5.2-61.2c-4.4,7-10.5,40.9-9.5,61.2c0.9,20.3,0.3,59.7-5.6,70.7c-5.9,11-36.2,2.7-33.4-5.8
		c2.8-8.5,2.8-36.3,5.3-68.4C518.1,164.5,530.9,137.7,537.1,127.5z"/>
	<path class="st6" d="M544.3,264.3c-5.9,11-36.2,2.7-33.4-5.8c7.1,11,24.1,7.6,26.9,3.4c2.8-4.3,7.1-15,7.1-33c0-14.4,3.7-42,5.6-54
		c-0.6,6.7-0.9,13.2-0.6,18.7C550.7,213.8,550.1,253.3,544.3,264.3z"/>
	<path class="st6" d="M516.1,190.1c1.5-20,9.7-40.8,16.1-53.7c-3.6,7.8-10.8,28.1-10.6,46.4c0.2,18.3-5.3,41.2-8.1,50.4
		C514.3,221.1,514.9,206.2,516.1,190.1z"/>
	<path class="st7" d="M500.7,304l-10.8-1.5c1.7-11.3,13.1-66.5,17.8-102.8c1-7.9,2.1-16.2,3.2-24.8c4.2-33.2,18.8-42.9,30.2-49.5
		c-25.9,20.7-27.4,66.8-28.9,90.8c-1.1,16.8-4.5,40.8-6.7,54.5C505.2,272.6,500.9,302.5,500.7,304z"/>
	<path class="st8" d="M507.7,199.6c1-7.9,2.1-16.2,3.2-24.8c-0.3,10.4-1.1,27.4-3.2,44.9c-4,32.8-8.3,62.6-17.8,82.7
		C491.5,291.2,503,236,507.7,199.6z"/>
	<path class="st7" d="M604.5,303.1c-5.3-22.9-13-113-13-113s6.2-31.8-4-47.3c-6.5-9.9-23.8-19.2-23.8-19.2c-7.7,7.4-9.6,41.9-9.6,70
		v84.2V307C567.4,309.8,589.7,311,604.5,303.1z"/>
	<path class="st9" d="M558,137.9c-3,14.5-3.9,36.6-3.9,55.7v71.9c1.3-10.6,3.6-38.3,2.5-64.7C555.5,174.4,557.1,147.9,558,137.9z"/>
	<path class="st9" d="M604.5,303.1c-5.3-22.9-13-113-13-113s6.2-31.8-4-47.3c0,16.5-8,38.8-3.4,61.1c6.2,30,11.4,57.4,5.6,78.2
		c-4.7,16.6-25.7,23.6-35.6,25C567.4,309.8,589.7,311,604.5,303.1z"/>
	<path class="st7" d="M638.8,213.3c1.9-18.9-16.7-46.7-37.7-67.5c-9.3-9.2-28.4-20.1-37.4-22.3l27.8,66.6c0,0,8.6,9.5,19.6,26
		C614.6,208.7,628.9,203.8,638.8,213.3z"/>
	<path class="st9" d="M638.8,213.3c1.9-18.9-16.7-46.7-37.7-67.5c-4.9-4.8-12.4-10.1-19.8-14.3c2.4,4.1,7.5,13.4,9,18
		c1.9,5.8,41.7,29,38.3,58.8C632.1,208.8,635.7,210.3,638.8,213.3z"/>
	<path class="st9" d="M607.8,208.3c0.6-5.8,6.1-9.1,10-10.1c8.8-2.2,17.5,0.5,21.9,7c3.8,5.7-0.5,13.9-4.4,17.1
		c0.7-10.8-3.4-14.6-12.4-13.2c-9,1.4-11.7,7-12.1,11.8C608.6,219.1,607.1,215.5,607.8,208.3z"/>
	<path class="st10" d="M622.9,209c-9,1.4-11.7,7-12.2,11.8c0.8,10,2.3,33.5,1.7,47.6c-0.7,17.5-1.7,23.5-4.9,31.2
		c-3.2,7.7,1,15.7,7.1,14.2c6.1-1.4,11-8.5,9.6-14.2c-1.5-5.8,0-11.5,2.4-15.6c2.4-4.1,8.6-39.1,8.6-61.7
		C636,211.4,631.9,207.5,622.9,209z"/>
	<path class="st7" d="M510.9,174.9c4.2-33.2,18.8-42.9,30.2-49.5c-9.6,5.1-31.2,11-47,38.7c-13.4,23.6-23.6,29.8-27.8,30.9
		c5.1,4.7,13.8,18.8,13,27.8c5.4-4,21-17.3,28.4-23.1C508.8,191.7,509.8,183.4,510.9,174.9z"/>
	<path class="st9" d="M507.7,199.6c1-7.9,2.1-16.2,3.2-24.8c-3,15-14.2,23.8-20.4,25.9c-4.9,1.7-9.9,11.1-11.8,15.6
		c0.6,2.3,0.8,4.5,0.7,6.4C484.8,218.8,500.4,205.5,507.7,199.6z"/>
	<path class="st9" d="M474.6,209.7c-3.5-10.7-8.5-14-10.7-14.4c0.7-0.7,2.6-2.4,5-3c3-0.8,11.4,0,15.1,6.1c3.2,5.2,6.8,13.6,0,21.9
		c-5.4,6.6-17,6-22.2,4.8C467.6,224.5,477.7,219.3,474.6,209.7z"/>
	<path class="st10" d="M461.9,225.2c5.7-0.7,15.8-5.9,12.7-15.5c-2.5-7.7-5.8-13.1-10.7-14.4c-1.2,0.4-3.5,1.4-12.6-2.5
		c-11.4-4.8-48.4-21.6-51.1-24c-2.7-2.4-8.7-10.7-17-10.4c-8.4,0.3-5.4,15.5,4.6,18.2c10,2.7,18.4,9.9,23.3,15.2
		C415.9,197.1,442.2,223,461.9,225.2z"/>
	<path class="st10" d="M540.9,125.4v-16.6l22.8-10.9v25.6C553.5,142.3,540,137.5,540.9,125.4z"/>
	
		<linearGradient id="SVGID_1_" gradientUnits="userSpaceOnUse" x1="551.3967" y1="453.7306" x2="555.2697" y2="429.8464" gradientTransform="matrix(1 0 0 -1 0 552)">
		<stop  offset="0" style="stop-color:#F4AF8A"/>
		<stop  offset="1" style="stop-color:#F9C0A1;stop-opacity:0"/>
	</linearGradient>
	<path class="st11" d="M543.4,107.6l20.3-9.7v25.6c0,0,0,0.1-0.1,0.1c-1,1.9-2.1,3.5-3.1,4.9c-3.8-5.6-13.8-14.3-19.6-18.7V109
		L543.4,107.6z"/>
	<path class="st12" d="M529.6,67c0,9.7,4.9,10.9,8.6,10.4l22.2,23.9c0.3,0.5,2.7,2.6,2.7,7.6c0,5.1,4-5.4,7-7.6
		c6.2-4.5,10.4-4.6,12.4-12.1c1.7-6.4-0.7-10.9-2.6-11.8c-1.2-0.5-2.4-1.6-4.3-1.9c-1.9-0.3-2.3-3.5-2.3-5c-0.1-1.2-0.6-2.8-3.6-4.6
		c-1.9-1.2-6.6-1.7-8.5,0c-1.2,0.6-3.8,1.3-5.1-1.2c-1.2-2.5-3.9-1.5-5.1-0.8c-3.4,1.2-11.4-2.4-14.5-11.9
		C532.8,57,529.6,60.4,529.6,67z"/>
	<path class="st13" d="M579.9,77.4c-1.2-0.5-2.4-1.6-4.3-1.9c9.6,7.1,1.9,18.4-4.3,21.5c-4.9,2.4-7.5,9-8.1,11.9c0,5.1,4-5.4,7-7.6
		c6.2-4.5,10.4-4.6,12.4-12.1C584.2,82.9,581.8,78.3,579.9,77.4z"/>
	<path class="st13" d="M551,64c-3.4,1.2-11.4-2.4-14.5-11.9c0.1,5.7,2.9,16.6,13.6,14.9c1.7-0.6,3.7-1.7,5.9,0.6
		c2.2,2.2,7.9-2.9,13.5-1.7c-1.9-1.2-6.6-1.7-8.5,0c-1.2,0.6-3.8,1.3-5.1-1.2C554.8,62.3,552.2,63.2,551,64z"/>
	<path class="st10" d="M549.5,109.8c9-2.8,12.6-9.1,13.2-11.9c0.3-1.2,0.9-4.4,0.8-5.8c-0.9-2.8-3.8,1.2-5.1,3.5
		c-1.7,3.1-2-7.7,0-10.4c2.8-3.7-1.6-4.7-3.5-5.8c-0.9-0.5-3.4-1.4-6.2-0.8c-2.8,0.6-4.3-1-4.7-1.9c-1-1.7-3.7-4-6.2,0
		c-5.9,8.9-4.8,20.7-3.5,25.4C535.6,105.8,540.4,112.6,549.5,109.8z"/>
</g>
<g>
	<circle class="st1" cx="155.7" cy="173" r="97.7"/>
	<circle class="st14" cx="155.7" cy="173" r="96.7"/>
</g>
<defs>
	<filter id="Adobe_OpacityMaskFilter_1_" filterUnits="userSpaceOnUse" x="91.6" y="60.5" width="183.1" height="232.8">
		<feColorMatrix  type="matrix" values="1 0 0 0 0  0 1 0 0 0  0 0 1 0 0  0 0 0 1 0"/>
	</filter>
</defs>
<mask maskUnits="userSpaceOnUse" x="91.6" y="60.5" width="183.1" height="232.8" id="mask1_5_1388_1_">
	<path class="st15" d="M58,173.4c0-53.9,43.7-124.4,97.7-124.4c130-3.7,126.4,109.4,119,166.3h-30.8c-15.7,32.9-49.3,55.7-88.2,55.7
		c-13,0-25.3-2.5-36.6-7.1c-0.8-0.3-1.5-0.6-2.3-1c-2.5,6.2-7.5,20.7-6.9,28.7c-12.2,9.9-42.1-9.3-39.7-71
		C62.4,206.7,58,190.6,58,173.4z"/>
</mask>
<g class="st16">
	<path class="st17" d="M267.6,193.1c-6,1.8-13.4,4.4-18.9,3c-4.4-1.1-4.1-2.5-4.6-5.4c1.4-2.4,7.3-6.9,18.7-9.2
		C277.2,178.6,278.1,189.9,267.6,193.1z"/>
	<path class="st18" d="M202.7,150.4c-1.8-4.3-6.6-5-8.8-4.8c-16,6.4-6.3,52.6-2.5,58.8c3.8,6.1,8.2,8.5,12.6,10.4
		c4.4,1.9,13.2,0.8,15.4-0.5c2.2-1.3,2.8-2.7,5.3-2.9c2.5-0.3,6.6-1.1,8.2-2.7c1.6-1.6,2.8-3.2,6.6-3.2c3.8,0,6.9-2.7,8.2-4.3
		c1.3-1.6,2.2-1.9,4.4-2.4c2.2-0.5,4.4-0.5,5-3.2c0.6-2.7,0.9-8,0.6-10.7c-0.3-2.7-0.3-2.7-1.9-2.4c-1.6,0.3-5.7,2.4-6.9,2.4
		c-1.3,0-3.5-0.3-5.7,0.5c-2.2,0.8-9.4,3.7-14.1,5.1c-4.7,1.3-11.6,1.6-11-0.3c0.6-1.9,2.8-7.2-1.6-7.2c-4.4,0-4.4-2.9-6.3-9.1
		C208.3,167.7,204.9,155.7,202.7,150.4z"/>
	<path class="st19" d="M249.2,196.6c1.4-0.1,4.5-0.6,6-2.1 M250.4,187.8c0.9-0.8,3.4-2.4,5.7-2.4L250.4,187.8z M252.6,189.1l2.5-1.1
		L252.6,189.1z M249.5,192.9c1.5-0.2,4.8-0.9,6.3-2.1L249.5,192.9z"/>
	<path class="st20" d="M250,199.3c-0.6-2.1-1.1-5.5-0.5-8c-0.6,1.9-2.5,6.2-4.7,8.8c-2.8,3.2-6.3,2.9-6.9,0.3
		c-0.6-2.7-4.4-1.1-5.7,2.1c-1.3,3.2-4.1,7.2-8.8,7.5c-4.4,0.2-6.6,1.2-7.9,1.8c-0.1,0-0.2,0.1-0.2,0.1c-1.3,0.5-0.9-1.6,0.3-2.9
		c1.3-1.3,2.8-4.8,2.5-6.7c-1.6,2.9-4.7,6.9-9.7,8.3c-5,1.3-7.9-1.9-4.1-4.8c3.8-2.9,6.6-5.6,7.5-8c0.4-0.9-0.1-0.6-1.1,0
		c-1.6,1-4.6,2.9-7.3,1.6c-4.4-2.1-3.8-8.3-0.3-9.3c1.1-0.3,2.8-0.4,4.5-0.5c3.8-0.2,8.1-0.5,9-3.2c-1.9,1.1-12.9,2.7-13.2-4
		c-0.3-6.7-0.9-11.2-2.5-15c-0.5-1.2-0.8-2.9-1-4.6c-0.5-3.4-1.1-7.1-4-8.5c-0.8-0.4-4.3-0.3-9,0.6c-4.9,15.6,1.7,44.9,4.6,49.6
		c3.8,6.1,8.2,8.5,12.6,10.4c4.4,1.9,13.2,0.8,15.4-0.5c0.7-0.4,1.3-0.9,1.8-1.3c1-0.8,1.9-1.5,3.6-1.7c2.5-0.3,6.6-1.1,8.2-2.7
		c0.1-0.1,0.2-0.2,0.3-0.3c1.4-1.5,2.8-2.9,6.3-2.9c3.8,0,6.9-2.7,8.2-4.3C248.4,200.1,249.1,199.6,250,199.3z"/>
	<path class="st21" d="M194.4,208.4c1.6-1.7,4.2-4.2,6.7-4.9c3.8-1.1,1.9-1.6-1.3-0.5c-3.1,1.1-3.8,0.3-4.1-3.2
		c-0.3-3.5,0.9-9.6,2.8-13.9s4.4-17.6-0.9-22.7c-2.5-2.3-7.6-2.1-12.5,0.3c-1.2,15.9,3.8,36.8,6.2,40.8
		C192.3,205.9,193.4,207.3,194.4,208.4z"/>
	<path class="st22" d="M247,196.9c2.8-3.2,2.4-9,1.9-11.5c0.8,2.1,2,7.2,0,10.2C246.3,199.3,246.3,197.7,247,196.9z"/>
	<path class="st18" d="M171.2,274.1c9.3-3.6,21.7-1.9,26.7-0.5c0.6,0.2,1.3,0,2.5-3.7c1.3-3.7,0.3-13.1,0-13.9
		c-0.3-0.8-0.3-1.3,0-2.7c1.6-8.8-4.4-29.9-6.9-41.7c-2.5-11.8,0.9-22.7,4.4-30.7c3.5-8,0.6-18.4-0.3-29.1
		c-0.9-10.7-11.6-11.5-26.1-14.4s-33-2.9-41.2,14.7s-0.6,40.6,0,53.7c0.6,13.1-5.7,24.3-9.7,35.8c-4.1,11.5-3.1,20-4.4,27.5
		c-1,6,1,8.5,2.2,9.1c0.1,1.3,0.3,4.9,0.3,8.5c0,4.5,1.9,6.9,6.6,6.7c4.7-0.3,12.3-2.9,18.9-7.2
		C150.8,281.8,159.6,278.6,171.2,274.1z"/>
	<path class="st22" d="M171.6,223.6c-8.5,6.4-19.1,5.2-23.2,3.7c0,1.2,2,4.1,10.1,6.4c10.1,2.9,17-3.7,19.8-9.1
		c2.3-4.3,7.2-10.3,9.4-12.8C185.8,213.1,180.1,217.2,171.6,223.6z"/>
	<path class="st20" d="M198,273.5c-5-1.3-17.4-3.1-26.7,0.5c-1.3,0.5-2.5,1-3.7,1.5c-9.8,3.8-17.4,6.8-23.3,10.6
		c-6.6,4.3-14.1,6.9-18.9,7.2c-4.7,0.3-6.6-2.1-6.6-6.7c0-3.6-0.2-7.2-0.3-8.5c-1.2-0.5-3.2-3.1-2.2-9.1c0.4-2.4,0.6-4.9,0.8-7.6
		c0.4-5.7,0.9-12.1,3.6-19.9c0.9-2.7,2-5.3,3.1-8c3.5-8.8,7.1-17.8,6.7-27.8c-0.2-3.5-0.8-7.6-1.5-12.2c-2-12.7-4.5-28.5,1.5-41.5
		c0.1-0.2,0.2-0.4,0.3-0.7c12.4-9.8,24.6-14,34.9-15c2,0.3,4,0.6,6,1c1.5,0.3,3.1,0.6,4.5,0.9c5.6,1.1,10.5,2,14.2,3.7
		c0.6,0.6,1.1,1.2,1.4,1.9c4.4,8.8-4.7,19-11.9,24c-7.2,5.1-5.7,7.2,2.5,5.1c7.2-1.9,6.1-1.3-2.8,3.5c-1.1,0.6-2.4,1.3-3.8,2.1
		c-12.3,6.7,1.6,4,11.6,1.9c10.1-2.1,8.2,2.9,6,5.1c-0.9,0.9-2,1.4-2.9,1.9c-1.3,0.6-2.3,1.2-2.5,2.4c-0.3,2.1-2.5,4.5-5.3,5.6
		c-0.2,0.1-0.5,0.2-0.7,0.3c-2.7,1-5.8,2.1-7.5,5.1c-1.9,3.2-6.6,3.7-12.3,3.5c-5.7-0.3-13.2,1.9-6.3,7.5c6.9,5.6,16.7,1.6,21.7-0.5
		c-11.6,12.3-28.3,3.2-31.4-1.1c-3.1-4.3-4.7-5.6-8.8-4.5c-4.1,1.1-5.3,6.1-1.6,7.2c1.7,0.5,3.4,0.3,4.8,0.1c1.8-0.2,3-0.4,3,1
		c0,2-5,5.6-9.3,8.8c-0.8,0.6-1.6,1.1-2.3,1.7c-4.7,3.5,0.6,6.4,4.1,7.5c3.5,1.1,2.5,2.4-3.1,7.7c-7.9,7.7,7.2,15,21.1,6.7
		c11.1-6.6,20.7-7.2,24.2-6.7c-4,1-13.6,4.5-20.4,10.7c-5.7,5.2-13.3,6.7-20,8c-3.3,0.6-6.3,1.2-8.9,2.2c-7.9,2.9-3.8,8.8,2.8,9.1
		c3.5,0.1,9.7-3.2,16.8-7.1c6.2-3.4,13.2-7.1,19.6-9.2c13.8-4.5,23.3-1.1,28.3,0.8c-8.2-0.5-31.1,6.1-43,12.8
		c-5.8,3.2-10.1,4.5-13.8,5.5c-4,1.1-7.4,2.1-11.3,5.1c-7.5,5.9,2.5,9.9,9.7,8.8c3.2-0.5,7.8-3.1,13-6.1c6.4-3.7,13.8-7.9,21-9.4
		c9.5-2,21.6,0.2,27.6,1.8C198.8,273.6,198.4,273.6,198,273.5z"/>
	<path class="st21" d="M130,201.2c1.3-1.6,3.2-4,4.2-5.7c1.6-2.7,2.5-3.7,4.7-1.9c2.2,1.9,5.7,1.6,7.5-0.5c0,0.1-0.1,0.3-0.1,0.4
		c-0.9,3.5-1.5,5.9,4.8,5.2c2.3-0.3,5.6,0.1,8.9,0.5c5.9,0.7,11.5,1.3,9.7-2.3c-2.8-5.6-4.7-19.2,0.9-24c4.5-3.8,8.4-9.3,9.7-11.5
		c2.5-5.1,2.3-15-18.9-13.9c-8.4,0.4-17.5-1.3-26.1-3c-1.9,2.1-3.6,4.6-5,7.6c-6,13-3.5,28.8-1.5,41.5
		C129.3,196.2,129.7,198.8,130,201.2z"/>
	<path class="st22" d="M185.7,263.6c6.5,0.2,8-3.8,7.9-5.9c0-1.6,1.9-1.6,0.9,5.3c-0.9,6.9-12.3,3.2-22,4c-9.7,0.8-23.6,6.9-27,8.8
		C162.5,263.4,177.5,263.4,185.7,263.6z"/>
	<path class="st19" d="M192.9,254.8c0.7,2.8,2.1,9.7,1.6,15.5 M123.5,279.7c0,2,0.2,6.7,0.9,9.9L123.5,279.7z M131,276.2
		c0.7,2.4,2.1,7.7,1.9,9.9L131,276.2z M136.1,273.5c0.5,1.9,1.6,7.1,1.6,12.8L136.1,273.5z M142.3,274.1v6.9V274.1z M147.4,270.3
		c0.6,1.6,1.7,5.6,0.9,8.5L147.4,270.3z M152.4,267.4c0.5,1.8,1.6,6,1.6,8.8L152.4,267.4z M158.7,265.8v6.9V265.8z M164.6,262.3
		c0.5,2.3,1.3,7.8,0,11.2V262.3z M169,261c0.7,1.5,2.1,5.3,1.6,8.5L169,261z M176.6,259.6c0,2.3,0,7.2,0,8V259.6z M180.7,257.5
		c0.3,2.1,0.9,7.3,0.9,11L180.7,257.5z M189.2,260.7c0.1,2.1,0.1,6.9-0.6,8.8L189.2,260.7z"/>
	<path class="st23" d="M126.6,274.9c20.5-9.3,63.9-27.1,71.9-20.3"/>
	<path class="st21" d="M116.3,269c-1,6,1,8.5,2.2,9.1c0.1,0.6,0.1,1.8,0.2,3.2c2.9-2.3,9.2-7.3,11.8-8.5c-4.7,1.3-10.9,4-11.8-1.9
		c-0.8-5.9,2.3-12,4.2-15.2c1.9-3.2,4.1-12.8,1.8-24.3c-1.4,3.4-2.8,6.8-4,10.1C116.6,253,117.5,261.5,116.3,269z"/>
	<path class="st17" d="M93.3,282.4c0.4-6.2,1.5-13.8,4.7-18.5c2.6-3.7,3.8-2.9,6.7-2.4c1.7,2.1,4.7,9.3,2.8,20.8
		C105.1,296.8,92.6,293.4,93.3,282.4z"/>
	<path class="st18" d="M91.8,273.5c0.5-1.1,0.8-2.6,0.9-3.2c0.9-6.9,0-13.6,0-25.1c0-11.5,2.8-23.5,5.3-27.8c2.5-4.3,1.9-8,3.1-10.1
		c1.3-2.1,5-4.5,3.8-11.8c-1.3-7.2,3.1-8,3.5-17.1c0.3-9.1,2.2-20.6,8.2-28.6c6-8,28-13.4,30.2,1.9c2.2,15.2-6,25.4-9.4,32.1
		c-3.5,6.7-7.9,21.1-8.5,24.8c-0.6,3.7-3.5,14.4-3.5,19c0,4.5-1.3,12.8-3.1,20c-1.9,7.2-6,16-7.2,16.8c-1.3,0.8-1.9,1.3-1.9,2.7
		c0,1.3-0.6,5.9-0.9,7.5c-0.3,1.6-0.6,2.1-1.6,1.6c-0.9-0.5-2.5-0.5-5.3-0.5c-2.8,0-7.5,0.5-10.4,0.3
		C92.1,275.7,91.1,274.9,91.8,273.5z"/>
	<path class="st22" d="M104,266.3c-6,1.3-9.2,0.2-10.1-0.5c1.8,0.5,6,1,9.4,0c2.8-0.8,6.8-0.7,8.2-0.3
		C110.1,265.5,106.5,265.7,104,266.3z"/>
	<path class="st19" d="M108.4,266.8c-0.3,1.1-0.7,3.5,0.3,4.5c1,1.1,0.2,2-0.3,2.4 M97.4,269.2c0.2,0.8,0.4,2.8-0.6,4.5L97.4,269.2z
		 M101.8,267.4l-0.3,5.9L101.8,267.4z"/>
	<path class="st20" d="M108.4,275.7c0.8-1.4,1.7-3.7,1.6-5.7c-0.3-3.2-4.7-4.3-7.2-3.7c3.1-1.3,10.1-4.3,11.9-11
		c1.9-6.7,1.3-10.7-4.7-11.2c-1.3,0-2.5-0.3,1.9-3.5c4.4-3.2,11.3-9.3,4.7-13.1c-6.6-3.7-11-6.7-11.9-10.7c3.1,2.1,6.9,4.5,8.5,4.8
		c1.4,0.2,1.3,0.1,0.7-2.1c-0.1-0.3-0.2-0.7-0.3-1.1c-0.9-3.2-3.1-11.2-3.1-13.6c0.9,2.9,2.5,7.5,6.6,9.3c4.1,1.9,5.3-3.2,4.7-6.7
		c-0.6-3.5-0.9-6.1,3.1-9.1c4.1-2.9,10.7-13.4,6-17.9c-4.7-4.5-13.2-12.8-12.9-19.2c0.2-5-0.3-6.6-2.6-9.6c0.4-0.7,0.9-1.3,1.3-1.9
		c4.3-5.7,16.7-10.1,24.3-6.6c0.7,0.4,1.4,0.9,2.1,1.3c1.9,1.6,3.3,3.9,3.8,7.1c1.8,12.7-3.5,21.8-7.4,28.4
		c-0.8,1.3-1.5,2.5-2.1,3.7c-3.5,6.7-7.9,21.1-8.5,24.8c-0.2,1.2-0.6,3-1.1,5.1c-1,4.7-2.4,10.7-2.4,13.9c0,4.5-1.3,12.8-3.1,20
		c-1.9,7.2-6,16-7.2,16.8c-1.3,0.8-1.9,1.3-1.9,2.7c0,1.3-0.6,5.9-0.9,7.5c-0.3,1.6-0.6,2.1-1.6,1.6
		C110.1,275.9,109.4,275.8,108.4,275.7z"/>
	<path class="st21" d="M132.1,197.1c-1.6,5-2.9,9.6-3.3,11.5c-0.2,1.2-0.6,3-1.1,5.1c-1,4.7-2.4,10.7-2.4,13.9
		c0,1.4-0.1,3.2-0.3,5.2c-1.7-3.3-4.3-6.9-7.8-7.6c-5.4-1.2-2.2-1.1,0.2-1.1c0.4,0,0.7,0,1,0c2.2,0,3.1-1.1,0.6-2.4
		c-2-1.1-5-6.9-6.3-9.6c1.4,2.8,5.3,8.3,10.4,8.3c1.6,0,2.8-1.3,1.9-4C124.2,214,126.9,203.8,132.1,197.1z"/>
	<path class="st17" d="M148.7,133.1l2.2-12.4l15.6,3.2c-0.4,1.6-0.3,6.6,0.5,12.7c0.9,6.1,3.5,9.3,4.9,10.3L148.7,133.1z"/>
	<path class="st24" d="M151,120.7l15.2,3.2c-0.3,1.2-0.3,4.3,0,8.4C155.4,130.9,151.6,124,151,120.7z"/>
	<path class="st25" d="M142.3,174.9c-0.6-3.7,2-4.5,4.3-5.6c1.4-0.6,3.1-1.5,3.7-3.1c4,1.6,8,2,14.3,1.2c0.3,3.8,0.9,12.5,1.1,17.1
		c0.3,5.9,2.3,15.2-4.3,12c-6.6-3.2-8.6-3.5-11.7-2.7s-5.4,0-5.7-5.1C143.8,183.7,142.9,176,142.3,174.9z"/>
	<path class="st26" d="M149.2,193.9c-0.9-1.9-2.2-6.1-1.8-11c0.6-6.7,2.3-12,4.3-6.9c1.6,4,2,8.8,2,10.6c1.1-0.6,3.5-3.2,3.7-8.8
		c0.3-6.9,0.6-6.7,1.4-2.7c0.9,4,1.1,4.5,2,0c0.1-0.6,0.2-1.2,0.3-1.6c0.5-3.2,0.7-4.2,3.5-4.7c0-0.6-0.1-1.1-0.1-1.5
		c-6.2,0.8-10.2,0.4-14.2-1.2c-0.6,1.7-2.3,2.5-3.7,3.2c-0.2,0.1-0.4,0.2-0.6,0.3c-2.1,1-4.2,1.9-3.7,5.3c0.6,1.1,1.4,8.8,1.7,13.8
		C144.3,193.6,146.4,194.5,149.2,193.9z"/>
	<path class="st27" d="M142.9,177.3c1.1-2.3,3-5.4,4.8-5.9c2.8-0.8,3.4-1.3,4.3-2.1c0.9-0.8,1.7-0.3,2,0.8c0.3,1.1,1.1,0,2-1.1
		c0.9-1.1,2.6-0.3,2.8,0.5c0.1,0.3,0.5,0.1,1.1-0.2c0.9-0.5,2.5-1.3,4.7-1.2c0-0.3,0-0.5-0.1-0.8c-6.2,0.8-10.2,0.4-14.2-1.2
		c-0.6,1.6-2.3,2.5-3.7,3.1c-0.2,0.1-0.4,0.2-0.6,0.3c-2.1,1-4.2,1.9-3.7,5.3C142.5,175.2,142.7,176.1,142.9,177.3z"/>
	<path class="st17" d="M163.1,128c-10.4-1.3-18.7-10.2-21.4-14.3c-5.5,1.3-6.6,0.5-6.9-3.2c-0.3-3.7,6.9-5.6,8.3-11.8
		c1.4-6.1,6.1-17.6,19.3-23c13.2-5.3,24.5,12,24.8,17.4c0.3,5.3-0.5,18.1-3.9,25.4C179.8,126.2,176,129.6,163.1,128z"/>
	<path class="st12" d="M142.2,113.1c-5.5,1.3-6.8,1.4-7-2.4c-5.2,1.1-16.5,4.9-19.7,12c-4.1,8.8,0,10.2,2.7,11.5
		c2.7,1.3,1.4,5.1-2.2,5.6c-3.6,0.5-3.8-2.1-4.1-3.7c-1.6,7.2,4.1,7.2,6.6,6.1c-1.6,4.3-1.1,7.5,2.7,8.5c3.8,1.1,0,5.1,0,8.8
		c0,3.7,4.1,5.9,4.4,8.5c0.3,2.7,3.6,4,6.9,5.1c3.3,1.1,1.9,2.4,0.5,4.8c-1.4,2.4,0.8,4.3,1.1,7.5c0.3,3.2,2.5,3.5,5.2,4
		c-2.7-4.5-1.1-6.1,0.5-7.5l0.1,0c1.6-1.3,3-2.4,2.4-6.1c-0.5-3.7,1.9-4.5,4.1-5.6c2.2-1.1,5.2-2.7,3-7.5c-2.2-4.8,4.7-8,6.3-12.8
		c1.6-4.8-2.2-10.7-3.8-12.8c-1.6-2.1-3.3-5.3-3.8-6.7c-0.5-1.3,0-1.3,0.3-1.1c1.4,1.3,1.6,0.3,1.9-1.1c0.2-1.1,0.5-4.2,0.5-5.6
		C146.6,119.8,143.7,115.4,142.2,113.1z"/>
	<path class="st12" d="M166,131.6v-3.4c6.8,0.5,10.7-0.8,13.5-3.5c5.7,6.7,0.6,12.5-0.2,13.9c-1.6-2.1-4.9-2.9-5.8-2.9
		c-0.8,0-1.6,0.3-2.5-1.1c-0.8-1.3-1.1-2.9-2.7-4C167,129.6,166.2,130.8,166,131.6z"/>
	<path class="st28" d="M134.8,125.4c1.7,1.2,4.5,4.6,2.6,8.6"/>
	<path class="st28" d="M142.2,128.4c3.5,2.7,9.8,9.5,6.5,14.8c-4.1,6.6-5,9-5,14"/>
	<path class="st28" d="M135.2,161c1.9-0.8,5-4.1,2.6-10.9c-2.5-6.8,0.7-10.8,2.6-11.9"/>
	<path class="st28" d="M125.7,140.8c-2.3,2.2-5.5,7.1,0,9c6.8,2.4,8.5,4.7,6.3,9.5"/>
	<path class="st28" d="M124.5,154.2c0.7,0.8,1.7,3.2,0,6"/>
	<path class="st28" d="M121,125c-0.9,0.9-2.2,3.3,0.3,5.9c3.1,3.2,2.8,5.1,1.3,7.2"/>
	<path class="st29" d="M127.3,114c-1.2,1.7-2.4,3.5-3.4,5.4c-0.9,1.8-1.6,3.6-1.8,5.2c-0.2,1.6,0.1,3.2,1.1,4.4
		c0.2,0.3,0.5,0.6,0.7,0.8c0.9,1.1,1.7,2,2.3,2.9c0.7,1.1,1,2.1,0.8,3.1c-0.2,1-1,2.1-2.7,3.4c-1.2,0.9-2.8,2-5,3.1
		c-0.1,0.3-0.2,0.5-0.3,0.8c2.5-1.3,4.4-2.5,5.7-3.5c1.7-1.3,2.6-2.5,2.9-3.7c0.3-1.2-0.2-2.3-0.9-3.5c-0.6-0.9-1.4-1.9-2.3-2.9v0
		c-0.2-0.3-0.5-0.5-0.7-0.8c-0.9-1.1-1.1-2.4-1-4c0.2-1.6,0.8-3.3,1.7-5c1.1-2.1,2.5-4.2,3.9-6C128,113.7,127.7,113.8,127.3,114z"/>
	<path class="st29" d="M144.2,116.3c-0.5,1.8-1,4.3-0.8,6.9c0.2,3.4,1.3,7,4.4,10c3.7,3.6,5,6.2,5,8.4c0,2.2-1.3,4.2-3.1,6.6
		c-1.8,2.4-2.9,4.8-2.7,7.7c0.1,2.5,1.2,5.4,3.4,8.9c-0.1-0.6-0.3-1.3-0.7-2.1c-0.1-0.3-0.2-0.5-0.3-0.7c-1.2-2.4-1.8-4.4-1.9-6.2
		c-0.1-2.7,0.9-5,2.6-7.4c1.8-2.4,3.2-4.5,3.2-6.9c0-2.4-1.4-5.1-5.2-8.7c-2.9-2.8-4-6.4-4.2-9.6c-0.1-2.4,0.2-4.6,0.7-6.4
		C144.5,116.6,144.3,116.5,144.2,116.3z"/>
	<path class="st29" d="M138.7,189.4c-0.5-0.6-1.1-1.4-1.5-2.2c-0.9-1.8-1.2-4-0.1-6.4c1.4-2.8,0.9-5.3,0.4-7.6
		c-0.1-0.3-0.1-0.6-0.2-0.9c-0.2-1.3-0.4-2.5-0.1-3.7c0.3-1.2,0.9-2.5,2.3-3.8c1.5-1.4,2.1-2.8,2.2-4.3c0.1-1.2-0.1-2.5-0.4-3.8
		c0-0.2-0.1-0.5-0.1-0.7c-0.3-1.6-0.4-3.1-0.1-4.8c0.3-1.7,1.2-3.5,3.1-5.4l0,0l0,0c1.3-1.6,1.5-3.7,0.8-5.8
		c-0.7-2.1-2.2-4.2-4.5-5.9c0.7-1.2,1.1-4.2-1.2-8.1c-1.5-2.5-2.4-4.8-2.5-6.9c-0.1-1.6,0.3-3.1,1.2-4.7c-0.2,0-0.4,0-0.6-0.1
		c-0.9,1.6-1.3,3.2-1.2,4.8c0.1,2.3,1.1,4.6,2.6,7.2c2.3,3.9,1.7,6.8,1.1,7.7c-1.7,1.1-4.1,3.3-5.7,6.1c-1.6,2.8-2.5,6.2-1.4,10
		c-0.1,0-0.2-0.1-0.3-0.1c-3.7-1.5-4.9-3.1-5.1-4.7c-0.1-1.6,0.9-3.3,2.1-4.8c1.2-1.5,2.9-3.7,3.5-6.2c0.7-2.5,0.4-5.2-2.2-7.6
		c-1.9-1.8-2.4-4-2.2-6.1c0.2-2.1,1-4.1,1.7-5.3l-0.5-0.3c-0.8,1.2-1.6,3.3-1.8,5.5c-0.2,2.2,0.3,4.7,2.4,6.6c2.4,2.2,2.7,4.7,2,7
		c-0.6,2.4-2.2,4.5-3.4,6c-1.2,1.5-2.4,3.3-2.3,5.1c0.1,1.9,1.6,3.7,5.4,5.2c0.3,0.1,0.6,0.2,0.8,0.4c1.4,0.7,2.1,1.4,2.6,2.1
		c0.4,0.7,0.5,1.5,0.3,2.4c-0.4,1.7-1.7,3.4-2.9,5l-0.2,0.2c-0.2,0.3-0.5,0.6-0.7,0.9c-1.3,1.6-1.8,3-1.8,4.5c0,1.1,0.4,2.1,1,3.2
		c-0.9-0.7-1.8-1.4-2.5-2.2c-1-1.2-1.7-2.6-1.7-4.2c0-0.8,0.3-1.6,0.7-2.6c0.6-1.3,1.1-2.4,1.2-3.4c0.2-1,0.1-1.9-0.4-2.6
		c-0.5-0.7-1.3-1.3-2.4-1.7c-1-0.3-2.3-0.5-3.9-0.6c0.1,0.2,0.2,0.4,0.3,0.6c1.4,0.1,2.6,0.3,3.5,0.6c1.1,0.4,1.8,0.8,2.1,1.4
		c0.4,0.6,0.5,1.3,0.3,2.3c-0.2,0.9-0.6,2-1.2,3.3c-0.5,1-0.7,1.9-0.8,2.8c-0.3,1.2-0.7,3-1.1,4.9c0,0.2-0.1,0.4-0.1,0.6
		c0,0.1,0,0.1,0,0.1c0,0.4,0.2,0.8,0.3,1.1c0.1-0.6,0.2-1.2,0.3-1.8c0.2-1.1,0.5-2.3,0.7-3.3c0.3,1.1,0.9,2.1,1.6,2.9
		c1.1,1.2,2.5,2.3,3.8,3.1l0.4-0.4c-1.1-1.6-1.7-2.9-1.7-4.1c0-1.3,0.5-2.5,1.7-4.1c0.1-0.1,0.2-0.2,0.3-0.4c0,0.9,0,2.1,0.2,3.4
		c0.2,1.7,0.7,3.7,1.6,5.2c0.8,1.4,0.5,3-0.3,4.6c0,0,0,0,0,0c0.2,0.3,0.1,0.7,0,1.1c0.2-0.3,0.3-0.5,0.5-0.8
		c0.8-1.6,1.2-3.4,0.3-5.1c-0.9-1.5-1.3-3.3-1.5-5c-0.2-1.7-0.2-3.2-0.1-4.1c1.2-1.5,2.6-3.3,3-5.1c0.2-0.9,0.2-1.9-0.3-2.7
		c-0.5-0.9-1.3-1.6-2.7-2.3c-1.2-3.8-0.4-7.3,1.2-10c1.5-2.7,3.8-4.8,5.4-5.9c2.2,1.7,3.7,3.7,4.4,5.7c0.7,2,0.5,3.9-0.7,5.3
		c-2,2-2.9,3.8-3.2,5.6c-0.4,1.8-0.2,3.5,0.1,5c0,0.2,0.1,0.5,0.1,0.7c0.2,1.3,0.4,2.5,0.3,3.7c-0.1,1.4-0.6,2.7-2,4
		c-1.5,1.4-2.2,2.7-2.5,4c-0.3,1.3-0.1,2.6,0.1,3.9c0.1,0.3,0.1,0.6,0.2,0.9c0.5,2.3,0.9,4.6-0.4,7.3c-1.3,2.6-0.9,4.9,0.1,6.9
		c0.3,0.6,0.7,1.2,1.1,1.8C138.1,189.3,138.4,189.3,138.7,189.4z"/>
	<path class="st30" d="M115.7,122.9c2.7-1.8,5.6-3.2,6.3-1.7c1.4,2.9,4.1,1.1,4.9-1.1c0.8-2.1,1.1-1.6,2.5,1.6
		c0.6,1.4,1,0.7,1.5-0.2c0.7-1.3,1.7-3,3.7-0.8c1.7,1.8,3.3,0,4.8-1.7c1.6-1.8,3.1-3.5,4.5-0.5c0.9,2,1.6,4.1,2.2,6.1
		c0.6,2,1.2,3.8,1.9,5.3c-0.1-0.7,0.3-0.7,0.5-0.4c1.4,1.3,1.6,0.3,1.9-1.1c0.2-1.1,0.5-4.2,0.5-5.6c-4.2-3-7.3-7.4-8.8-9.6
		c-5.5,1.3-6.5,1.4-6.8-2.4C130.2,111.8,119,115.7,115.7,122.9C115.7,122.8,115.7,122.8,115.7,122.9z"/>
	<path class="st25" d="M148,130.5c-0.5-1.3,0-1.3,0.3-1.1c0.6,0.6,1,0.7,1.3,0.5c1.9,1.8,6.1,5.8,8.3,7.5c2.2,1.7,7.9,3.6,10.4,4.3
		c-0.9-1.9-2.7-6.5-2.3-10.2c0.2-0.7,1-1.9,2.3-1.1c1.6,1.1,1.9,2.7,2.7,4c0.8,1.3,1.6,1.1,2.5,1.1c0.8,0,4.1,0.8,5.8,2.9
		c0.5,0.4,1.8,1.2,3.3,1.6c1.9,0.5,4.4,3.2,3.6,5.9c-0.8,2.7-4.1,5.3-5.8,8.3c-1.6,2.9-4.1,11.8-12.6,13.4c-1.5,0.3-2.8,0.5-4.1,0.7
		c-6,0.8-9.9,0.4-13.7-1.2c0.4-1.1,0.3-2.4-0.5-4.3c-2.2-4.8,4.7-8,6.3-12.8c1.6-4.8-2.2-10.7-3.8-12.8
		C150.2,135.1,148.5,131.9,148,130.5z"/>
	<path class="st26" d="M160.3,138.7c1.6,2.2,4.6,5.2,8.4,5.5c5.6,0.5,6.4-4.5,5.9-6.9c-2.4,1.9-6.7,3.5-6.4-0.3c0-0.5,0.1-1,0.1-1.5
		c0.2-2.2,0.3-3.9-0.3-5.3c-1.2-0.6-1.9,0.5-2.1,1.2c-0.3,3.6,1.4,8.3,2.3,10.1C166.3,141.1,162.8,139.9,160.3,138.7z"/>
	<path class="st26" d="M157.9,167.7c-0.8-0.2-1.6-0.4-2.4-0.7c0.4-1.1,0.4-2.4-0.6-4.3c-1.5-2.9,0.8-5.3,3.3-7.8
		c1.6-1.6,3.2-3.2,3.9-5.1c1.3-3.4-0.5-7.4-2.3-10.1c2.4,1.3,6,3.2,8.6,4.3c4.1,1.6,3.1,4.5-2.2,1.9c-2.2-1.1-2.2,2.4,2.2,4.3
		c4.4,1.9,12.6,1.6,15.4-4.8c2.8-6.4,6.3-5.6,4.1,0.5c-2.2,6.1-6.6,12.8-10.1,15c-1.7,1-4.1,1.3-6.6,1.6c-2.6,0.3-5.3,0.6-7.3,1.9
		c-2.9,1.8-3.7,3.3-3.8,3.9c-0.5-0.1-1-0.2-1.5-0.3L157.9,167.7z"/>
	<path class="st27" d="M149.9,166.2c0.1-0.9-0.1-2.1-0.7-3.6c-1.4-2.9,0.7-5.3,2.9-7.7c1.4-1.6,2.9-3.2,3.5-5
		c0.1-0.3,0.2-0.6,0.2-0.8l3.1,3c2,1.9,8.7,2.1,12.1,1.3c-2.2,1.3-5.1,1.6-10.4,0.8c-5.3-0.8-7,1.6-3.9,3.2
		c3.1,1.6,12.1-0.8,15.2-2.9c-2.8,4.6-8.1,5.2-12,5.7c-0.4,0.1-0.8,0.1-1.2,0.1c-1.4,0.2-2.9,0-4.2-0.1c-2.5-0.2-4.5-0.4-3.9,1.7
		C151.1,164.1,150.4,165.6,149.9,166.2z"/>
	<path class="st12" d="M153,86.3c1.7-6.2,7.1-6.3,9.5-5.6c1.4,0.3,0.3-2.9,4.9-3.5c4.6-0.5,7.6,2.4,9,4.5c1.4,2.1,2.4,4.3,4.6,6.1
		c1.1,3.2,4.6,6.7,5.4,7.5c0,0.8,0.3,6.1,0.3,8.5c4.6-3.5,2.7-6.6,3.8-9.6c0.9-2.4,0.2-3.8-0.3-4.3c0.1-1.2,0.2-4.1-0.3-5.6
		c-0.5-1.9-2.4-2.1-3.3-2.1c0.5-1.3,0-2.7-0.8-3.2c-0.8-0.5-1.6-1.9-2.7-4c-1.1-2.1-5.4-5.6-7.3-6.4c-1.9-0.8-1.9-2.1-2.4-2.7
		c-7.1-6.1-13.3-3.5-14.7-2.9c-1.4,0.5-2.2,0-2.7-0.3c-10.6-6.4-17.4,2.7-19.3,5.3c-11.4,4.8-15.5,11-14.7,19.5
		c0.8,8.6-1.6,11.8-3.5,13.6c-1.9,1.9-1.4,3.7,0.3,5.9c3,4.3-2.2,4.8-4.1,5.9s-0.5,4-1.4,5.3c-0.8,1.3-0.5,4,1.6,6.1
		c3.3-6.1,12.5-8.8,17.7-9.9c5.2-1.1,10.1-8.3,13.9-11.5C150.3,99.9,150.8,94.1,153,86.3z"/>
	<path class="st29" d="M145.9,103.7c0.4-6.5,1.7-14.2,4.3-20.1c1.6-3.6,3.7-6.4,6.5-7.9c2.7-1.4,6-1.5,10,0.5
		c-0.1,0.4-0.2,0.8-0.3,1.1c0.2-0.1,0.4-0.1,0.6-0.1c0.1-0.4,0.2-0.7,0.2-1.1c0.1-1.3-0.3-2.9-1.7-4.5c-1.5-1.7-3-3-4.3-4.2
		c-0.4-0.4-0.8-0.7-1.2-1c-1.1-1-2.1-2-2.7-3.2c-0.3,0-0.5-0.1-0.7-0.2c0.5,1,1.1,1.9,1.9,2.7c-1.3-0.5-2.9-1-4.7-1.2
		c-3.5-0.5-7.4,0-10.3,3.1c-3,3.2-5.6,7.9-7.6,12.7c-2.1,4.8-3.6,9.7-4.7,13.6c-1.1,3.8-2.9,7.8-5.3,10.8c-1.8,2.3-3.9,4-6.3,4.9
		c0,0.2-0.1,0.5-0.2,0.6c2.7-0.9,5-2.8,7-5.3c2.5-3.1,4.3-7.1,5.4-11c1.1-3.9,2.7-8.8,4.7-13.6c2-4.8,4.6-9.3,7.5-12.5
		c2.4-2.5,5.6-3.2,8.6-3.1c-2.9,1.1-7.9,4-11.4,9.4c-2.6,3.9-4.1,9.6-5.5,15.2l-0.1,0.4c-1.5,5.8-3.1,11.5-5.8,15.3
		c-2.1,3-5.1,4.9-8,6c-2.4,0.9-4.8,1.3-6.5,1.4c-0.2,0.1-0.4,0.2-0.6,0.3c-0.1,0.1-0.2,0.1-0.3,0.2l0,0.1c1.7,0,4.6-0.3,7.5-1.4
		c3-1.1,6.1-3,8.3-6.2c2.8-3.9,4.3-9.7,5.9-15.5l0.1-0.4c1.5-5.7,3-11.3,5.5-15.1c4.1-6.2,9.9-9,12.3-9.6c1.8,0.2,3.5,0.7,4.8,1.3
		c-3.3,0.2-8.7,1.9-11,8.1c-0.8,2.1-1.9,5.5-3.1,9.6l-0.1,0.3c-1.3,4.2-2.8,9-4.4,13.6c-1.6,4.6-3.3,9.1-5.1,12.7
		c-0.8,1.6-1.5,2.9-2.3,4.1c0,0,0,0,0,0c0.2-0.1,0.5-0.1,0.7-0.2c0.7-1,1.3-2.3,2-3.6c1.8-3.6,3.5-8.1,5.1-12.7
		c1.6-4.6,3.1-9.4,4.4-13.6l0.1-0.3c1.3-4,2.3-7.5,3.1-9.5c2.5-6.6,8.8-7.9,11.6-7.7c0.4,0.3,0.7,0.7,1.1,1c1.3,1.2,2.8,2.5,4.2,4.1
		c1.1,1.3,1.5,2.6,1.6,3.7c-4.1-2-7.5-1.9-10.3-0.4c-2.9,1.5-5.1,4.5-6.7,8.1c-2.7,6.1-4,14.2-4.4,20.8
		C145.5,104.1,145.7,103.9,145.9,103.7z"/>
	<path class="st29" d="M119.2,108c3.2-1.1,5-3.9,6.2-7.2c0.8-2.1,1.3-4.4,1.8-6.7c0.2-0.9,0.4-1.9,0.5-2.8c0.3-1.4,0.5-2.8,0.8-4.1
		c1.3-6.2,5.4-14.4,7.8-18.9c-0.3,0.1-0.5,0.2-0.8,0.4c-2.5,4.6-6.3,12.4-7.6,18.4c-0.3,1.3-0.5,2.7-0.8,4.1
		c-0.2,0.9-0.3,1.8-0.5,2.8c-0.5,2.3-1,4.6-1.7,6.6c-1.2,3.3-3,5.9-6,6.9C119,107.7,119.1,107.8,119.2,108z"/>
	<path class="st31" d="M186.5,96.1c0.4,0,0.8,0.1,1.2,0.1c0.8,0,1.6,0,2.4,0c0-0.2,0-0.4,0.1-0.5c-0.8,0-1.6,0.1-2.4,0
		c-0.4,0-0.8,0-1.2-0.1C186.4,95.7,186.4,95.9,186.5,96.1z"/>
	<path class="st31" d="M181.2,88.5c3.5,1.7,7,2.1,9.2,2c-0.1-0.2-0.2-0.3-0.3-0.4l0,0l0-0.1c-2.4,0-5.9-0.4-9.5-2.4
		c0.1,0.1,0.2,0.2,0.3,0.3C181.1,88.1,181.1,88.3,181.2,88.5z"/>
	<path class="st29" d="M162.6,69.1c1.2-1.4,5-3.4,11.3-2.2c0.1,0.2,0.2,0.4,0.4,0.6c-6.4-1.4-10.1,0.7-11.2,1.9L162.6,69.1z"/>
	<path class="st29" d="M184.7,82.4c0.7,0.1,1.4,0,2.1-0.4c0,0.1-0.1,0.2-0.1,0.4c0.1,0,0.3,0,0.5,0c-0.8,0.5-1.7,0.7-2.5,0.5
		c-1.2-0.2-2.4-1-3.5-2.1c-1.7-1.6-3.3-3.9-4.5-5.7c-0.4-0.5-0.7-1-1-1.4c-1-1.4-2.7-1.6-4.4-1.4c-1.8,0.3-3.6,1.1-4.7,1.7l-0.3-0.5
		c1.1-0.7,3-1.5,4.9-1.8c1.9-0.3,3.8,0,5,1.6c0.3,0.4,0.6,0.9,1,1.4c1.2,1.8,2.8,4,4.4,5.6C182.5,81.5,183.6,82.2,184.7,82.4z"/>
	<path class="st28" d="M166.7,70c1.6-1.3,5.7-2.7,9,1.3c3.3,4.1,6.4,6.7,7.6,7.5 M170.6,75.3c2.4,0.6,7.7,2.7,9.3,6.2
		c1.9,4.3,5.4,7,8.2,6.7 M185.8,90.9c0.5,0.7,1.7,1.9,3.3,1.1 M165.4,64.6c1.2-0.2,3.9-0.4,5.2,0.3"/>
	<path class="st28" d="M160.3,69.8c-3.6-0.1-11.6,2.6-14.6,13.9 M144.8,74.4c-2.1,3.8-6.6,13.1-8.1,19.5c-1.9,8-3.3,18.2-16.8,20.3
		 M122.6,100.6c1.3-2,3.6-7.1,3-11.8c-0.8-5.9,0.3-11.5,5.2-14.7 M153,63.2c-4.8-0.4-14.9,1.3-17.1,10.7c-2.2,9.4-6.9,21.4-8.9,26.2
		"/>
</g>
<path class="st1" d="M289.5,453.3c0,51.8,42,93.8,93.8,93.8c51.8,0,93.8-42,93.8-93.8c0-51.8-42-93.8-93.8-93.8
	C331.5,359.5,289.5,401.5,289.5,453.3z"/>
<path class="st32" d="M383.3,546.1c-51.2,0-92.8-41.5-92.8-92.8s41.5-92.8,92.8-92.8c51.2,0,92.8,41.5,92.8,92.8
	S434.5,546.1,383.3,546.1z"/>
<path class="st33" d="M401.1,391.7c-9.5,19.7-25.9,8-29.6,0c7.4,0,5.1-15.1,4-22.6h22C397.1,380.7,399.7,389,401.1,391.7z"/>
<linearGradient id="SVGID_2_" gradientUnits="userSpaceOnUse" x1="382.4505" y1="170.4888" x2="392.1435" y2="165.5378" gradientTransform="matrix(1 0 0 -1 0 552)">
	<stop  offset="0" style="stop-color:#F3AD8F"/>
	<stop  offset="1" style="stop-color:#FCC4AC;stop-opacity:0"/>
</linearGradient>
<path class="st34" d="M401.1,391.7c-9.5,19.7-25.9,8-29.6,0c7.4,0,5.1-15.1,4-22.6h22C397.1,380.7,399.7,389,401.1,391.7z"/>
<path class="st35" d="M351.1,401.4c-0.1,32.3-8.9,117.6-10.2,130.9c-0.7,7,16.5,13.2,35.7,14.5c24.9,1.8,45.8-6.6,50.3-10.5
	C428,498,430,414.3,430,407.2c-9.3-6.6-22.7-12.9-28.9-15.5c-12.3,7.6-21.1,5-26.9-0.9C365.6,392.4,355.1,398.9,351.1,401.4z"/>
<linearGradient id="SVGID_3_" gradientUnits="userSpaceOnUse" x1="427.2615" y1="59.3276" x2="403.0175" y2="71.7276" gradientTransform="matrix(1 0 0 -1 0 552)">
	<stop  offset="0" style="stop-color:#026CF0"/>
	<stop  offset="1" style="stop-color:#307FE2;stop-opacity:0"/>
</linearGradient>
<path class="st36" d="M351.1,401.4c-0.1,32.3-8.9,117.6-10.2,130.9c-0.7,7,16.5,13.2,35.7,14.5c24.9,1.8,45.8-6.6,50.3-10.5
	C428,498,430,414.3,430,407.2c-9.3-6.6-22.7-12.9-28.9-15.5c-12.3,7.6-21.1,5-26.9-0.9C365.6,392.4,355.1,398.9,351.1,401.4z"/>
<path class="st37" d="M351.1,401.4c-0.1,32.3-8.9,117.6-10.2,130.9c-0.7,7,16.5,13.2,35.7,14.5c24.9,1.8,45.8-6.6,50.3-10.5
	C428,498,430,414.3,430,407.2c-9.3-6.6-22.7-12.9-28.9-15.5c-12.3,7.6-21.1,5-26.9-0.9C365.6,392.4,355.1,398.9,351.1,401.4z"/>
<path class="st38" d="M373,391.1c0.1,0,0.3-0.1,0.4-0.1c0.8,5.4,1.7,12.6,1.9,20c0.4,9.4-0.1,19.1-2.6,26c-3,8.5-3,18.8-2.3,28.5
	c0.3,4.1,0.8,8.1,1.2,11.7l0,0v0c0.1,0.6,0.1,1.2,0.2,1.8c0.5,4.1,0.9,7.7,0.9,10.5c0,0.6,0,1.2,0,1.8c0,4.8,0,8.9-1.3,13.8
	c-1.5,5.5-4.6,11.9-11.3,21.3c-0.8,1.2-1,2.8-0.7,4.8c0.3,2,1,4.2,2,6.4c1.1,2.6,2.5,5.1,3.9,7.4c-0.2,0-0.4-0.1-0.6-0.1
	c-1.3-2.2-2.7-4.7-3.7-7.1c-1-2.3-1.7-4.5-2-6.6c-0.3-2-0.1-3.8,0.8-5.1v0c6.7-9.4,9.8-15.8,11.3-21.2c1.3-4.8,1.3-8.9,1.3-13.7v0
	c0-0.6,0-1.2,0-1.8c0-2.8-0.4-6.4-0.9-10.5c-0.1-0.6-0.1-1.2-0.2-1.8v0l0,0c-0.4-3.6-0.9-7.6-1.2-11.7c-0.8-9.6-0.8-20,2.3-28.6
	c2.4-6.8,2.9-16.5,2.6-25.8C374.7,403.6,373.9,396.4,373,391.1z"/>
<path class="st38" d="M344.4,537.9c0.2,0.1,0.4,0.3,0.7,0.4c-0.9-2.1-1.5-4.1-1.8-5.9c-0.3-2-0.1-3.6,0.7-4.8
	c6.7-9.4,9.9-15.8,11.4-21.3c1.3-4.9,1.3-9,1.3-13.8v0c0-0.6,0-1.2,0-1.8c0-2.8-0.4-6.4-0.9-10.5c-0.1-0.6-0.1-1.2-0.2-1.8v0l0,0
	c-0.4-3.6-0.9-7.6-1.2-11.7c-0.8-9.6-0.8-19.9,2.3-28.5c2.4-6.9,3-16.6,2.6-26c-0.2-5.3-0.7-10.4-1.2-14.9c-0.1,0.1-0.3,0.2-0.4,0.2
	c0.5,4.4,1,9.5,1.2,14.7c0.4,9.3-0.2,19-2.6,25.8c-3.1,8.6-3.1,19-2.3,28.6c0.3,4.1,0.8,8.1,1.2,11.7l0,0v0c0.1,0.6,0.1,1.2,0.2,1.8
	c0.5,4.1,0.9,7.7,0.9,10.5c0,0.6,0,1.2,0,1.8v0c0,4.8,0,8.8-1.3,13.7c-1.5,5.4-4.6,11.8-11.3,21.2v0c-0.9,1.3-1.1,3.1-0.8,5.1
	C343.1,534.2,343.7,536,344.4,537.9z"/>
<path class="st38" d="M381.6,547.4c-1.1-1.9-2.2-4-3.1-6.1c-1-2.3-1.7-4.5-2-6.6c-0.3-2-0.1-3.8,0.8-5.1v0
	c6.7-9.4,9.8-15.8,11.3-21.2c1.3-4.8,1.3-8.9,1.3-13.7v0c0-0.6,0-1.2,0-1.8c0-2.8-0.4-6.4-0.8-10.5c-0.1-0.6-0.1-1.2-0.2-1.8l0,0
	c-0.4-3.6-0.9-7.6-1.2-11.7c-0.8-9.6-0.8-20,2.3-28.6c2.4-6.8,2.9-16.5,2.6-25.8c-0.3-6.8-1-13.4-1.7-18.5c0.1,0,0.3-0.1,0.4-0.1
	c0.8,5.2,1.5,11.8,1.7,18.6c0.4,9.4-0.1,19.1-2.6,26c-3,8.5-3,18.8-2.3,28.4c0.3,4.1,0.8,8.1,1.2,11.7l0,0c0.1,0.6,0.1,1.2,0.2,1.8
	c0.5,4.1,0.9,7.7,0.9,10.5c0,0.6,0,1.2,0,1.8c0,4.8,0,8.9-1.3,13.8c-1.5,5.5-4.6,11.9-11.4,21.3c-0.8,1.2-1,2.8-0.7,4.8
	c0.3,2,1,4.2,2,6.4c0.9,2.1,2.1,4.3,3.3,6.3C381.9,547.5,381.8,547.5,381.6,547.4z"/>
<path class="st38" d="M400.1,548.6c-1.4-2.2-2.7-4.7-3.8-7.2c-1-2.3-1.7-4.5-2-6.6c-0.3-2-0.1-3.8,0.8-5.1l0,0
	c6.7-9.4,9.8-15.8,11.3-21.2c1.3-4.8,1.3-8.9,1.3-13.7c0-0.6,0-1.2,0-1.8c0-2.8-0.4-6.4-0.9-10.5c-0.1-0.6-0.1-1.2-0.2-1.8v0
	c-0.4-3.6-0.9-7.6-1.2-11.7c-0.8-9.6-0.8-20,2.3-28.6c2.4-6.8,2.9-16.5,2.6-25.8c-0.3-7.3-1.1-14.3-1.9-19.6
	c0.2,0.1,0.3,0.2,0.5,0.2c0.8,5.3,1.6,12.2,1.8,19.4c0.4,9.4-0.1,19.1-2.6,26c-3,8.5-3,18.8-2.3,28.4c0.3,4.1,0.8,8.1,1.2,11.7v0
	c0.1,0.6,0.1,1.2,0.2,1.8c0.5,4.1,0.9,7.7,0.9,10.5c0,0.6,0,1.2,0,1.8v0c0,4.8,0,8.9-1.3,13.8c-1.5,5.5-4.6,11.9-11.4,21.3
	c-0.8,1.2-1,2.8-0.7,4.8c0.3,2,1,4.2,2,6.4c1.1,2.5,2.5,5.1,3.9,7.4C400.5,548.6,400.3,548.6,400.1,548.6z"/>
<path class="st38" d="M418.3,547.7c-1.2-2-2.3-4.2-3.3-6.3c-1-2.3-1.7-4.5-2-6.6c-0.3-2-0.1-3.8,0.8-5.1h0
	c6.7-9.4,9.8-15.8,11.3-21.2c1.3-4.8,1.3-8.9,1.3-13.7c0-0.6,0-1.2,0-1.8c0-2.8-0.4-6.4-0.9-10.5c-0.1-0.6-0.1-1.2-0.2-1.8v0
	c-0.4-3.6-0.9-7.6-1.2-11.7c-0.8-9.6-0.8-20,2.3-28.6c2.4-6.8,2.9-16.5,2.6-25.8c-0.1-2.9-0.3-5.8-0.6-8.5c0.2,0.1,0.3,0.2,0.5,0.3
	c0.2,2.6,0.4,5.4,0.5,8.2c0.4,9.4-0.1,19.1-2.6,26c-3,8.5-3,18.8-2.3,28.5c0.3,4.1,0.8,8.1,1.2,11.7c0.1,0.6,0.1,1.2,0.2,1.8
	c0.5,4.1,0.9,7.7,0.9,10.5c0,0.6,0,1.2,0,1.8c0,4.8,0,8.9-1.3,13.8c-1.5,5.5-4.6,11.9-11.3,21.3c-0.8,1.2-1,2.8-0.7,4.8
	c0.3,2,1,4.2,2,6.4c0.9,2.2,2.1,4.4,3.3,6.4C418.6,547.7,418.4,547.7,418.3,547.7z"/>
<linearGradient id="SVGID_4_" gradientUnits="userSpaceOnUse" x1="359.9038" y1="194.5249" x2="378.9988" y2="192.3889" gradientTransform="matrix(1 0 0 -1 0 552)">
	<stop  offset="0" style="stop-color:#FEA568"/>
	<stop  offset="1" style="stop-color:#F4B88E"/>
</linearGradient>
<path class="st39" d="M362.2,337.3c-0.3,6.8,0,23.3,0,35.4c0,20.5,30.7,4.6,35.3-3.6c9.2-16.2-1-30.9-2.9-31.7H362.2z"/>
<path class="st33" d="M362.2,337.3c-0.3,6.8,0,23.3,0,35.4c0,20.5,30.7,4.6,35.3-3.6c9.2-16.2-1-30.9-2.9-31.7H362.2z"/>
<path class="st40" d="M398,331.4c6.7-1.3,5.7,4.2,5.3,5c16,4.4-3.5,36.7-5.8,37.4l0-6c0-2.4,4.7-4.9,2.1-9.1
	c-3.4-5.6-4.2,5.4-4.2,5.4c-2.4-1.3-3.3-10.4-1-15.6c-7.9,3.5-13.1-3-14.1-4.9c-5.6,3.2-14.2,1.9-16.9-0.7c-0.4,1.5-1.3,4.3-1.3,9.1
	c-6.4-3.4-9.7-16.1-6.3-15c-0.4-25.3,21.9-16.2,24.5-13.2c2.6,3,3.3,2.2,3.6,1.9c9.4-4.6,14,0,13.1,2.9
	C396.1,331.6,397.7,331.4,398,331.4z"/>
<path class="st41" d="M265.7,444.5c-4.8,0.4-8.9-2.4-8-2.8c12.5-4.3,29.2,1.1,38.9,4c3.4,6.9-2.2,14.5-5.5,17.4
	c-1.6-1.7-5-3.8-7.2-3.8c-11.3-0.6-22.1,15.6-33.1,7.5C241.9,460.5,257,449.3,265.7,444.5z"/>
<path class="st33" d="M265.7,444.5c-4.8,0.4-8.9-2.4-8-2.8c12.5-4.3,29.2,1.1,38.9,4c3.4,6.9-2.2,14.5-5.5,17.4
	c-1.6-1.7-5-3.8-7.2-3.8c-11.3-0.6-22.1,15.6-33.1,7.5C241.9,460.5,257,449.3,265.7,444.5z"/>
<path class="st35" d="M351.1,401.4c1.2,21.6-2.4,58.9-5.1,77.9c-2.9,7.1-63.5-15.1-61.9-19.4c1.6-4.3,5.7-10.6,7.6-15.7
	c1.4-3.5,36.3,12.9,37.6,7C330.6,445.3,331.6,412.4,351.1,401.4z"/>
<linearGradient id="SVGID_5_" gradientUnits="userSpaceOnUse" x1="314.0327" y1="73.7832" x2="315.2867" y2="84.1702" gradientTransform="matrix(1 0 0 -1 0 552)">
	<stop  offset="0" style="stop-color:#0154F7"/>
	<stop  offset="1" style="stop-color:#307FE2;stop-opacity:0"/>
</linearGradient>
<path class="st42" d="M351.1,401.4c1.2,21.6-2.4,58.9-5.1,77.9c-2.9,7.1-63.5-15.1-61.9-19.4c1.6-4.3,5.7-10.6,7.6-15.7
	c1.4-3.5,36.3,12.9,37.6,7C330.6,445.3,331.6,412.4,351.1,401.4z"/>
<path class="st37" d="M351.1,401.4c1.2,21.6-2.4,58.9-5.1,77.9c-2.9,7.1-63.5-15.1-61.9-19.4c1.6-4.3,5.7-10.6,7.6-15.7
	c1.4-3.5,36.3,12.9,37.6,7C330.6,445.3,331.6,412.4,351.1,401.4z"/>
<path class="st43" d="M348.2,403.1c-4.4,11.8-5.6,28.7-3.6,41.6c1,6.4,1.5,12,0.7,16.6c-0.8,4.6-3.1,8.2-7.6,10.5
	c-1.7,0.9-3.2,0.8-4.8,0.2c-1.2-0.4-2.4-1.1-3.8-1.9c-0.5-0.3-1-0.6-1.5-0.9c-3.9-2.2-8.9-4.2-16.3-1.9c-5.8,1.8-11.5-0.1-16-2.9
	c-4.6-2.9-7.9-6.7-8.9-8.9l-0.4,0.2c1.1,2.3,4.5,6.2,9.1,9.1c4.6,2.9,10.5,4.8,16.4,3c7.2-2.2,12-0.2,15.9,1.9
	c0.5,0.3,1,0.6,1.5,0.8c1.4,0.8,2.6,1.5,3.9,2c1.7,0.6,3.4,0.8,5.2-0.2c4.6-2.4,6.9-6.1,7.8-10.8c0.9-4.7,0.3-10.4-0.7-16.8
	c-2-12.8-0.7-29.6,3.6-41.4L348.2,403.1z M338.9,416.1c0.1-0.8,0.3-1.5,0.4-2.1l-0.4-0.1c-0.1,0.6-0.2,1.3-0.4,2.1
	c-0.8,4.1-1.9,10-2.5,16c-0.7,7.1-0.6,14.5,1.6,19.3c2.6,5.7,1.6,9.6-0.8,11.5c-2.4,2-6.2,2-9.2-0.4c-1.6-1.3-4.2-2.8-7.6-3.2
	c-3.4-0.5-7.5,0.2-12.2,3.2c-1.2,0.8-3.1,0.9-5.3,0.5c-2.2-0.4-4.5-1.4-6.7-2.7c-2.1-1.3-4-3.1-5.1-5c-1.1-1.9-1.6-4.1-0.9-6.3
	l-0.4-0.1c-0.8,2.3-0.3,4.6,0.9,6.6c1.2,2,3.1,3.8,5.3,5.1c2.2,1.4,4.6,2.4,6.8,2.8c2.2,0.4,4.2,0.3,5.6-0.6c4.6-3,8.7-3.6,11.9-3.2
	c3.3,0.4,5.8,1.9,7.4,3.2c3.2,2.4,7.2,2.4,9.8,0.3c2.6-2.1,3.6-6.3,0.9-12.1c-2.2-4.7-2.2-12-1.6-19.1
	C337,426.1,338.1,420.2,338.9,416.1z"/>
<path class="st44" d="M291.7,444.2c-2,5.1-6,11.4-7.6,15.7c-0.3,0.7,1.3,2,4,3.6c4.5-3.3,8.3-13.9,9.7-18.8
	C294.4,443.7,292.1,443.3,291.7,444.2z"/>
<path class="st33" d="M417,549.9c2.1-1,9.2-15.2,13-25.1l-8.6-6.9c-12,4-17,16.1-14,15.6c3-0.5,3.3,1.1,0.7,4.6
	C398.1,551.3,414.1,551.2,417,549.9z"/>
<path class="st35" d="M455.3,476.2c5.3-17.6-12-58.4-25.3-69c0,4.3-0.8,24.4-1.3,51.1c7.6,13.7-11.2,55.3-12.9,58.8
	c-1.8,3.5,13.6,16.6,16.1,11.5C434.4,523.6,449.3,495.9,455.3,476.2z"/>
<linearGradient id="SVGID_6_" gradientUnits="userSpaceOnUse" x1="454.5874" y1="72.8556" x2="445.9404" y2="76.5056" gradientTransform="matrix(1 0 0 -1 0 552)">
	<stop  offset="0" style="stop-color:#0071FF"/>
	<stop  offset="1" style="stop-color:#307FE2;stop-opacity:0"/>
</linearGradient>
<path class="st45" d="M455.3,476.2c5.3-17.6-12-58.4-25.3-69c0,4.3-0.8,24.4-1.3,51.1c7.6,13.7-11.2,55.3-12.9,58.8
	c-1.8,3.5,13.6,16.6,16.1,11.5C434.4,523.6,449.3,495.9,455.3,476.2z"/>
<path class="st37" d="M455.3,476.2c5.3-17.6-12-58.4-25.3-69c0,4.3-0.8,24.4-1.3,51.1c7.6,13.7-11.2,55.3-12.9,58.8
	c-1.8,3.5,13.6,16.6,16.1,11.5C434.4,523.6,449.3,495.9,455.3,476.2z"/>
<path class="st43" d="M431.9,418.8c-0.7-0.9-1.4-1.7-1.9-2.4l-0.4,0.3c0.6,0.7,1.2,1.6,2,2.5c2.3,2.9,5.3,6.5,7.8,10.4
	c3.3,5.2,5.7,10.8,5,15.8c-0.5,3.2,0.3,6.6,1.4,10c0.8,2.3,1.8,4.7,2.8,7c0.4,1,0.9,2,1.3,3c1.3,3.3,2.4,6.4,2.6,9.3
	c0.2,2.9-0.6,5.5-2.9,7.8c-4.5,4.4-5.4,8.3-6.3,12.1c-0.1,0.5-0.2,1-0.4,1.5c-0.5,2.1-1.2,4.2-2.6,6.2c-1.4,2.1-3.6,4.2-7.1,6.4
	c-1.4,0.9-2.6,2.5-3.7,4.4c-1.1,1.9-2,4.2-2.7,6.4c-0.7,2.2-1.2,4.3-1.3,6c-0.1,0.8-0.1,1.6,0,2.1c0,0.2,0,0.3,0.1,0.5
	c-1.6-0.9-3.3-2.2-4.8-3.5c-0.8-3.7-0.4-8.2,1-12.1c1.4-4,3.8-7.3,7.1-8.9c3-1.4,4.6-3.2,5.5-5.3c0.8-2,1-4.3,1-6.6
	c0-0.1,0-0.2,0-0.3c0.1-2.2,0.1-4.5,0.8-6.8c0.7-2.4,2.1-4.7,4.8-7c2.7-2.2,3.6-4.5,3.5-6.8c-0.2-2.3-1.4-4.5-2.8-6.7
	c-0.5-0.7-0.9-1.4-1.4-2.1c-1.1-1.5-2.1-3.1-2.9-4.7c-1.2-2.3-1.8-4.5-1.3-6.8c2.9-11.7-4.2-19.3-6.4-21.4l-0.3,0.3
	c2.2,2.1,9.2,9.5,6.3,20.9c-0.6,2.5,0.1,4.8,1.3,7.2c0.8,1.6,1.9,3.2,3,4.7c0.5,0.7,0.9,1.4,1.4,2.1c1.5,2.2,2.6,4.4,2.8,6.5
	c0.2,2.1-0.7,4.2-3.3,6.4c-2.8,2.3-4.2,4.7-5,7.2c-0.7,2.3-0.8,4.7-0.9,6.9c0,0.1,0,0.2,0,0.3c-0.1,2.3-0.2,4.5-1,6.4
	c-0.8,1.9-2.3,3.6-5.2,5c-3.4,1.6-5.9,5.1-7.3,9.1c-1.4,4-1.8,8.6-1,12.4l0,0.1l0.1,0c1.8,1.6,3.8,3,5.6,4l0.2-0.4
	c-0.1,0-0.1-0.1-0.2-0.3c-0.1-0.2-0.1-0.4-0.1-0.6c-0.1-0.5,0-1.2,0-2c0.2-1.6,0.6-3.8,1.3-5.9c0.7-2.2,1.6-4.4,2.6-6.3
	c1.1-1.9,2.3-3.4,3.6-4.2c3.6-2.2,5.8-4.4,7.3-6.5c1.4-2.1,2.1-4.3,2.6-6.4c0.1-0.5,0.2-1,0.3-1.5c0.9-3.8,1.8-7.6,6.1-11.8
	c2.4-2.4,3.2-5.1,3-8.1c-0.2-3-1.3-6.2-2.6-9.5c-0.4-1-0.9-2-1.3-3.1c-1-2.3-2-4.6-2.8-7c-1.1-3.4-1.8-6.7-1.4-9.8
	c0.7-5.2-1.8-10.9-5.1-16.1C437.2,425.4,434.2,421.7,431.9,418.8z"/>
<path class="st44" d="M424.2,496.3c4.7-13.6,8.9-30.3,4.5-38C440.3,466.4,431.5,484.6,424.2,496.3z"/>
<path class="st35" d="M415.8,517.1c-1.8,3.5,13.6,16.6,16.1,11.5c0.2-0.4,0.5-0.9,0.8-1.6c-3.7-0.8-12-4.5-15.7-12.6
	C416.4,515.8,416,516.7,415.8,517.1z"/>
<linearGradient id="SVGID_7_" gradientUnits="userSpaceOnUse" x1="434.3689" y1="24.9693" x2="425.722" y2="28.6203" gradientTransform="matrix(1 0 0 -1 0 552)">
	<stop  offset="0" style="stop-color:#0071FF"/>
	<stop  offset="1" style="stop-color:#307FE2;stop-opacity:0"/>
</linearGradient>
<path class="st46" d="M415.8,517.1c-1.8,3.5,13.6,16.6,16.1,11.5c0.2-0.4,0.5-0.9,0.8-1.6c-3.7-0.8-12-4.5-15.7-12.6
	C416.4,515.8,416,516.7,415.8,517.1z"/>
<path class="st44" d="M415.8,517.1c-1.8,3.5,13.6,16.6,16.1,11.5c0.2-0.4,0.5-0.9,0.8-1.6c-3.7-0.8-12-4.5-15.7-12.6
	C416.4,515.8,416,516.7,415.8,517.1z"/>
<g id="dialog_1_">
	<path class="st47" d="M306.6,355h-76.9c-3.4,0-6.1,2.8-6.1,6.1v17.4c0,3.4,2.8,6.1,6.1,6.1h62.6l19.2,6.2l-5.3-6.2h0.3
		c3.4,0,6.1-2.8,6.1-6.1v-17.4C312.8,357.8,310,355,306.6,355z"/>
	<path class="st48" d="M244.2,372.3c1.6,0,2.9-1.3,2.9-2.9c0-1.6-1.3-2.9-2.9-2.9s-2.9,1.3-2.9,2.9
		C241.4,371,242.7,372.3,244.2,372.3z M260.5,372.3c1.6,0,2.9-1.3,2.9-2.9c0-1.6-1.3-2.9-2.9-2.9c-1.6,0-2.9,1.3-2.9,2.9
		C257.7,371,259,372.3,260.5,372.3z M279.2,369.4c0,1.6-1.3,2.9-2.9,2.9c-1.6,0-2.9-1.3-2.9-2.9c0-1.6,1.3-2.9,2.9-2.9
		C277.9,366.5,279.2,367.8,279.2,369.4z M292.2,372.3c1.6,0,2.9-1.3,2.9-2.9c0-1.6-1.3-2.9-2.9-2.9c-1.6,0-2.9,1.3-2.9,2.9
		C289.3,371,290.6,372.3,292.2,372.3z"/>
</g>
<g id="dialog_3_">
	<path class="st47" d="M430.4,308v17.4c0,3.4,2.8,6.1,6.1,6.1h0.3l-5.3,6.2l19.2-6.2h62.6c3.4,0,6.1-2.8,6.1-6.1V308
		c0-3.4-2.8-6.1-6.1-6.1h-76.9C433.1,301.8,430.4,304.6,430.4,308z"/>
	<path class="st48" d="M501.8,316.2c0-1.6-1.3-2.9-2.9-2.9c-1.6,0-2.9,1.3-2.9,2.9c0,1.6,1.3,2.9,2.9,2.9
		C500.5,319.1,501.8,317.8,501.8,316.2z M485.5,316.2c0-1.6-1.3-2.9-2.9-2.9c-1.6,0-2.9,1.3-2.9,2.9c0,1.6,1.3,2.9,2.9,2.9
		C484.2,319.1,485.5,317.8,485.5,316.2z M466.8,313.3c1.6,0,2.9,1.3,2.9,2.9c0,1.6-1.3,2.9-2.9,2.9c-1.6,0-2.9-1.3-2.9-2.9
		C463.9,314.6,465.2,313.3,466.8,313.3z M453.8,316.2c0-1.6-1.3-2.9-2.9-2.9c-1.6,0-2.9,1.3-2.9,2.9c0,1.6,1.3,2.9,2.9,2.9
		C452.6,319.1,453.8,317.8,453.8,316.2z"/>
</g>
<g id="dialog_4_">
	<path class="st47" d="M196.8,32.8v17.4c0,3.4,2.8,6.1,6.1,6.1h0.3l-5.3,6.2l19.2-6.2h62.6c3.4,0,6.1-2.8,6.1-6.1l0-17.4
		c0-3.4-2.8-6.1-6.1-6.1h-76.9C199.5,26.7,196.8,29.4,196.8,32.8z"/>
	<path class="st48" d="M268.2,41c0-1.6-1.3-2.9-2.9-2.9c-1.6,0-2.9,1.3-2.9,2.9c0,1.6,1.3,2.9,2.9,2.9
		C266.9,43.9,268.2,42.6,268.2,41z M251.9,41c0-1.6-1.3-2.9-2.9-2.9c-1.6,0-2.9,1.3-2.9,2.9c0,1.6,1.3,2.9,2.9,2.9
		C250.6,43.9,251.9,42.6,251.9,41z M233.2,38.2c1.6,0,2.9,1.3,2.9,2.9c0,1.6-1.3,2.9-2.9,2.9c-1.6,0-2.9-1.3-2.9-2.9
		C230.3,39.5,231.6,38.2,233.2,38.2z M220.3,41c0-1.6-1.3-2.9-2.9-2.9c-1.6,0-2.9,1.3-2.9,2.9c0,1.6,1.3,2.9,2.9,2.9
		C219,43.9,220.3,42.6,220.3,41z"/>
</g>
<g id="dialog_5_">
	<path class="st47" d="M265.6,120.3v11.9c0,2.3,1.9,4.2,4.2,4.2h0.2l-3.6,4.2l13.1-4.2h42.7c2.3,0,4.2-1.9,4.2-4.2v-11.9
		c0-2.3-1.9-4.2-4.2-4.2h-52.4C267.5,116.1,265.6,118,265.6,120.3z"/>
	<path class="st48" d="M314.3,125.9c0-1.1-0.9-2-2-2s-2,0.9-2,2c0,1.1,0.9,2,2,2S314.3,127,314.3,125.9z M303.2,125.9
		c0-1.1-0.9-2-2-2c-1.1,0-2,0.9-2,2c0,1.1,0.9,2,2,2C302.3,127.9,303.2,127,303.2,125.9z M290.4,124c1.1,0,2,0.9,2,2
		c0,1.1-0.9,2-2,2c-1.1,0-2-0.9-2-2C288.5,124.9,289.4,124,290.4,124z M281.6,125.9c0-1.1-0.9-2-2-2c-1.1,0-2,0.9-2,2
		c0,1.1,0.9,2,2,2C280.7,127.9,281.6,127,281.6,125.9z"/>
</g>
<g id="dialog_2_">
	<path class="st49" d="M466.3,32.8h-52.7c-2.3,0-4.2,1.9-4.2,4.2V49c0,2.3,1.9,4.2,4.2,4.2h42.9l13.1,4.3l-3.6-4.3h0.2
		c2.3,0,4.2-1.9,4.2-4.2V37C470.5,34.7,468.6,32.8,466.3,32.8z"/>
	<path class="st48" d="M423.5,44.6c1.1,0,2-0.9,2-2c0-1.1-0.9-2-2-2c-1.1,0-2,0.9-2,2C421.5,43.8,422.4,44.6,423.5,44.6z
		 M434.7,44.6c1.1,0,2-0.9,2-2c0-1.1-0.9-2-2-2c-1.1,0-2,0.9-2,2C432.7,43.8,433.6,44.6,434.7,44.6z M447.5,42.7c0,1.1-0.9,2-2,2
		c-1.1,0-2-0.9-2-2c0-1.1,0.9-2,2-2C446.6,40.7,447.5,41.6,447.5,42.7z M456.4,44.6c1.1,0,2-0.9,2-2c0-1.1-0.9-2-2-2
		c-1.1,0-2,0.9-2,2C454.4,43.8,455.3,44.6,456.4,44.6z"/>
</g>
<g id="dialog">
	<path class="st49" d="M404.9,78.1H328c-3.4,0-6.1,2.8-6.1,6.1v17.4c0,3.4,2.8,6.1,6.1,6.1h62.6l19.2,6.2l-5.3-6.2h0.3
		c3.4,0,6.1-2.8,6.1-6.1V84.3C411,80.9,408.3,78.1,404.9,78.1z"/>
	<path class="st48" d="M342.5,95.4c1.6,0,2.9-1.3,2.9-2.9c0-1.6-1.3-2.9-2.9-2.9c-1.6,0-2.9,1.3-2.9,2.9
		C339.6,94.1,340.9,95.4,342.5,95.4z M358.8,95.4c1.6,0,2.9-1.3,2.9-2.9c0-1.6-1.3-2.9-2.9-2.9c-1.6,0-2.9,1.3-2.9,2.9
		C355.9,94.1,357.2,95.4,358.8,95.4z M377.5,92.5c0,1.6-1.3,2.9-2.9,2.9c-1.6,0-2.9-1.3-2.9-2.9c0-1.6,1.3-2.9,2.9-2.9
		C376.2,89.6,377.5,90.9,377.5,92.5z M390.4,95.4c1.6,0,2.9-1.3,2.9-2.9c0-1.6-1.3-2.9-2.9-2.9c-1.6,0-2.9,1.3-2.9,2.9
		C387.6,94.1,388.8,95.4,390.4,95.4z"/>
</g>
</svg>
