<?xml version="1.0" standalone="no"?>
<!DOCTYPE svg PUBLIC "-//W3C//DTD SVG 20010904//EN"
 "http://www.w3.org/TR/2001/REC-SVG-20010904/DTD/svg10.dtd">
<svg version="1.0" xmlns="http://www.w3.org/2000/svg"
 width="700.000000pt" height="700.000000pt" viewBox="0 0 700.000000 700.000000"
 preserveAspectRatio="xMidYMid meet">
<metadata>
Created by potrace 1.14, written by Peter Selinger 2001-2017
</metadata>
<g transform="translate(0.000000,700.000000) scale(0.100000,-0.100000)"
fill="#000000" stroke="none">
<path d="M3328 6555 c-2 -2 -41 -6 -88 -9 -122 -10 -161 -15 -250 -31 -14 -3
-41 -7 -60 -10 -19 -3 -64 -13 -100 -21 -36 -9 -75 -18 -88 -20 -12 -2 -74
-20 -138 -39 -365 -111 -724 -302 -1027 -547 -111 -90 -321 -294 -409 -398
-69 -82 -207 -268 -221 -297 -6 -13 -14 -23 -19 -23 -4 0 -8 -4 -8 -8 0 -5
-23 -47 -51 -93 -148 -244 -286 -586 -345 -849 -2 -11 -6 -29 -9 -41 -2 -11
-6 -28 -9 -37 -3 -9 -8 -35 -11 -57 -3 -23 -7 -50 -9 -60 -28 -153 -39 -274
-41 -485 -1 -171 5 -297 20 -410 4 -25 8 -58 11 -75 20 -153 84 -409 142 -571
101 -280 241 -545 405 -768 l64 -86 299 300 c164 166 301 302 302 305 2 2 -14
30 -36 62 -148 218 -285 557 -326 808 -30 181 -34 241 -31 440 2 110 6 213 9
228 2 15 10 60 16 100 17 104 67 301 96 377 14 36 30 79 36 95 43 117 217 421
294 513 10 12 30 37 44 54 45 59 260 272 323 321 250 194 480 314 758 397 56
16 103 30 104 30 1 0 20 30 41 66 22 38 67 92 103 126 63 57 179 123 233 132
15 3 32 7 37 10 14 9 150 10 201 2 303 -49 514 -342 467 -648 -41 -264 -279
-469 -547 -471 -169 -1 -301 54 -422 176 l-41 41 -94 -32 c-537 -184 -955
-663 -1067 -1224 -31 -149 -39 -363 -22 -523 13 -124 70 -337 118 -445 54
-120 108 -220 119 -220 3 0 742 736 1642 1637 l1636 1636 -62 47 c-68 51 -203
143 -227 153 -8 4 -28 16 -45 27 -54 34 -258 137 -355 178 -193 81 -427 152
-620 186 -137 25 -143 26 -200 32 -30 3 -68 8 -85 11 -32 5 -452 13 -457 8z"/>
<path d="M3433 5651 c-114 -39 -171 -122 -164 -240 10 -164 186 -265 334 -191
55 27 77 50 106 105 56 109 13 248 -95 307 -62 33 -120 40 -181 19z"/>
<path d="M5617 5082 c-163 -163 -299 -300 -303 -304 -3 -4 14 -38 39 -75 152
-229 285 -565 323 -817 3 -22 7 -43 9 -46 18 -29 27 -466 12 -588 -41 -336
-144 -632 -315 -912 -233 -381 -593 -695 -992 -865 -47 -20 -94 -40 -105 -45
-24 -11 -119 -41 -202 -65 -60 -18 -64 -21 -99 -81 -73 -125 -212 -232 -339
-261 -11 -2 -31 -7 -45 -10 -32 -7 -167 -7 -200 1 -74 17 -101 26 -160 56
-124 63 -243 207 -281 340 -19 69 -19 70 -20 155 -3 157 51 286 166 400 78 78
157 125 254 150 61 16 192 22 236 12 145 -34 239 -86 322 -178 l33 -36 92 32
c549 192 951 651 1072 1225 41 198 42 456 1 655 -18 86 -55 209 -85 285 -35
90 -122 251 -132 248 -5 -2 -744 -739 -1643 -1637 l-1634 -1633 27 -22 c148
-121 444 -292 667 -385 44 -18 94 -39 110 -46 110 -47 408 -126 565 -150 19
-3 46 -7 60 -10 14 -2 50 -7 80 -10 30 -3 68 -8 83 -11 47 -10 426 -12 517 -3
176 16 200 19 331 44 175 34 159 30 301 71 256 74 523 194 753 337 592 369
1063 961 1280 1612 66 199 117 409 131 550 4 33 8 62 10 65 17 30 24 467 11
630 -49 586 -249 1097 -631 1617 -1 1 -136 -131 -299 -295z"/>
<path d="M3438 1796 c-169 -50 -228 -258 -109 -383 75 -79 177 -97 275 -49 60
30 97 71 118 135 59 173 -109 349 -284 297z"/>
</g>
</svg>
